<?xml version="1.0" standalone="no"?>
<svg xmlns="http://www.w3.org/2000/svg" version="1.1" width="231" height="231">
	<!-- Created with https://api.qrserver.com (QR Code API, see goQR.me/api for information) -->
	<title>QR Code</title>
	<desc>BEGIN:VCARD
VERSION:2.1
FN:Ronilda Basha
N:Basha;Ronilda
TITLE:RonildaBeautycorner
TEL;CELL:0044 7466 415 599
TEL;WORK;VOICE:0044 7466 415 599
EMAIL;HOME;INTERNET:ronildabeautycorner@gmail.com
EMAIL;WORK;INTERNET:ronildabeautycorner@gmail.com
URL:https://ronildabeautycorner.com/
ADR:;;;Northfield, Birmingham;;B312sw;UK
END:VCARD
</desc>
	<rect style="fill:rgb(0, 0, 0);fill-opacity:1" x="0" y="0" width="231" height="231" />
	<g id="elements">
		<path style="fill:rgb(255, 168, 212)" d="M 18,18 l 3,0 0,3 -3,0 z M 21,18 l 3,0 0,3 -3,0 z M 24,18 l 3,0 0,3 -3,0 z M 27,18 l 3,0 0,3 -3,0 z M 30,18 l 3,0 0,3 -3,0 z M 33,18 l 3,0 0,3 -3,0 z M 36,18 l 3,0 0,3 -3,0 z M 45,18 l 3,0 0,3 -3,0 z M 51,18 l 3,0 0,3 -3,0 z M 57,18 l 3,0 0,3 -3,0 z M 63,18 l 3,0 0,3 -3,0 z M 66,18 l 3,0 0,3 -3,0 z M 69,18 l 3,0 0,3 -3,0 z M 75,18 l 3,0 0,3 -3,0 z M 78,18 l 3,0 0,3 -3,0 z M 90,18 l 3,0 0,3 -3,0 z M 93,18 l 3,0 0,3 -3,0 z M 96,18 l 3,0 0,3 -3,0 z M 102,18 l 3,0 0,3 -3,0 z M 105,18 l 3,0 0,3 -3,0 z M 117,18 l 3,0 0,3 -3,0 z M 123,18 l 3,0 0,3 -3,0 z M 126,18 l 3,0 0,3 -3,0 z M 141,18 l 3,0 0,3 -3,0 z M 144,18 l 3,0 0,3 -3,0 z M 147,18 l 3,0 0,3 -3,0 z M 150,18 l 3,0 0,3 -3,0 z M 156,18 l 3,0 0,3 -3,0 z M 168,18 l 3,0 0,3 -3,0 z M 171,18 l 3,0 0,3 -3,0 z M 174,18 l 3,0 0,3 -3,0 z M 177,18 l 3,0 0,3 -3,0 z M 183,18 l 3,0 0,3 -3,0 z M 192,18 l 3,0 0,3 -3,0 z M 195,18 l 3,0 0,3 -3,0 z M 198,18 l 3,0 0,3 -3,0 z M 201,18 l 3,0 0,3 -3,0 z M 204,18 l 3,0 0,3 -3,0 z M 207,18 l 3,0 0,3 -3,0 z M 210,18 l 3,0 0,3 -3,0 z M 18,21 l 3,0 0,3 -3,0 z M 36,21 l 3,0 0,3 -3,0 z M 42,21 l 3,0 0,3 -3,0 z M 45,21 l 3,0 0,3 -3,0 z M 48,21 l 3,0 0,3 -3,0 z M 51,21 l 3,0 0,3 -3,0 z M 54,21 l 3,0 0,3 -3,0 z M 57,21 l 3,0 0,3 -3,0 z M 60,21 l 3,0 0,3 -3,0 z M 66,21 l 3,0 0,3 -3,0 z M 69,21 l 3,0 0,3 -3,0 z M 78,21 l 3,0 0,3 -3,0 z M 84,21 l 3,0 0,3 -3,0 z M 93,21 l 3,0 0,3 -3,0 z M 96,21 l 3,0 0,3 -3,0 z M 99,21 l 3,0 0,3 -3,0 z M 102,21 l 3,0 0,3 -3,0 z M 108,21 l 3,0 0,3 -3,0 z M 111,21 l 3,0 0,3 -3,0 z M 117,21 l 3,0 0,3 -3,0 z M 123,21 l 3,0 0,3 -3,0 z M 126,21 l 3,0 0,3 -3,0 z M 129,21 l 3,0 0,3 -3,0 z M 132,21 l 3,0 0,3 -3,0 z M 141,21 l 3,0 0,3 -3,0 z M 147,21 l 3,0 0,3 -3,0 z M 159,21 l 3,0 0,3 -3,0 z M 162,21 l 3,0 0,3 -3,0 z M 165,21 l 3,0 0,3 -3,0 z M 186,21 l 3,0 0,3 -3,0 z M 192,21 l 3,0 0,3 -3,0 z M 210,21 l 3,0 0,3 -3,0 z M 18,24 l 3,0 0,3 -3,0 z M 24,24 l 3,0 0,3 -3,0 z M 27,24 l 3,0 0,3 -3,0 z M 30,24 l 3,0 0,3 -3,0 z M 36,24 l 3,0 0,3 -3,0 z M 45,24 l 3,0 0,3 -3,0 z M 48,24 l 3,0 0,3 -3,0 z M 54,24 l 3,0 0,3 -3,0 z M 57,24 l 3,0 0,3 -3,0 z M 60,24 l 3,0 0,3 -3,0 z M 63,24 l 3,0 0,3 -3,0 z M 66,24 l 3,0 0,3 -3,0 z M 75,24 l 3,0 0,3 -3,0 z M 81,24 l 3,0 0,3 -3,0 z M 84,24 l 3,0 0,3 -3,0 z M 87,24 l 3,0 0,3 -3,0 z M 90,24 l 3,0 0,3 -3,0 z M 96,24 l 3,0 0,3 -3,0 z M 99,24 l 3,0 0,3 -3,0 z M 123,24 l 3,0 0,3 -3,0 z M 129,24 l 3,0 0,3 -3,0 z M 135,24 l 3,0 0,3 -3,0 z M 138,24 l 3,0 0,3 -3,0 z M 141,24 l 3,0 0,3 -3,0 z M 144,24 l 3,0 0,3 -3,0 z M 147,24 l 3,0 0,3 -3,0 z M 165,24 l 3,0 0,3 -3,0 z M 171,24 l 3,0 0,3 -3,0 z M 174,24 l 3,0 0,3 -3,0 z M 180,24 l 3,0 0,3 -3,0 z M 186,24 l 3,0 0,3 -3,0 z M 192,24 l 3,0 0,3 -3,0 z M 198,24 l 3,0 0,3 -3,0 z M 201,24 l 3,0 0,3 -3,0 z M 204,24 l 3,0 0,3 -3,0 z M 210,24 l 3,0 0,3 -3,0 z M 18,27 l 3,0 0,3 -3,0 z M 24,27 l 3,0 0,3 -3,0 z M 27,27 l 3,0 0,3 -3,0 z M 30,27 l 3,0 0,3 -3,0 z M 36,27 l 3,0 0,3 -3,0 z M 42,27 l 3,0 0,3 -3,0 z M 45,27 l 3,0 0,3 -3,0 z M 48,27 l 3,0 0,3 -3,0 z M 57,27 l 3,0 0,3 -3,0 z M 60,27 l 3,0 0,3 -3,0 z M 63,27 l 3,0 0,3 -3,0 z M 69,27 l 3,0 0,3 -3,0 z M 75,27 l 3,0 0,3 -3,0 z M 84,27 l 3,0 0,3 -3,0 z M 90,27 l 3,0 0,3 -3,0 z M 93,27 l 3,0 0,3 -3,0 z M 96,27 l 3,0 0,3 -3,0 z M 99,27 l 3,0 0,3 -3,0 z M 102,27 l 3,0 0,3 -3,0 z M 111,27 l 3,0 0,3 -3,0 z M 114,27 l 3,0 0,3 -3,0 z M 117,27 l 3,0 0,3 -3,0 z M 120,27 l 3,0 0,3 -3,0 z M 126,27 l 3,0 0,3 -3,0 z M 132,27 l 3,0 0,3 -3,0 z M 135,27 l 3,0 0,3 -3,0 z M 147,27 l 3,0 0,3 -3,0 z M 153,27 l 3,0 0,3 -3,0 z M 156,27 l 3,0 0,3 -3,0 z M 159,27 l 3,0 0,3 -3,0 z M 171,27 l 3,0 0,3 -3,0 z M 174,27 l 3,0 0,3 -3,0 z M 177,27 l 3,0 0,3 -3,0 z M 180,27 l 3,0 0,3 -3,0 z M 183,27 l 3,0 0,3 -3,0 z M 192,27 l 3,0 0,3 -3,0 z M 198,27 l 3,0 0,3 -3,0 z M 201,27 l 3,0 0,3 -3,0 z M 204,27 l 3,0 0,3 -3,0 z M 210,27 l 3,0 0,3 -3,0 z M 18,30 l 3,0 0,3 -3,0 z M 24,30 l 3,0 0,3 -3,0 z M 27,30 l 3,0 0,3 -3,0 z M 30,30 l 3,0 0,3 -3,0 z M 36,30 l 3,0 0,3 -3,0 z M 45,30 l 3,0 0,3 -3,0 z M 48,30 l 3,0 0,3 -3,0 z M 51,30 l 3,0 0,3 -3,0 z M 54,30 l 3,0 0,3 -3,0 z M 57,30 l 3,0 0,3 -3,0 z M 60,30 l 3,0 0,3 -3,0 z M 63,30 l 3,0 0,3 -3,0 z M 72,30 l 3,0 0,3 -3,0 z M 75,30 l 3,0 0,3 -3,0 z M 78,30 l 3,0 0,3 -3,0 z M 81,30 l 3,0 0,3 -3,0 z M 87,30 l 3,0 0,3 -3,0 z M 102,30 l 3,0 0,3 -3,0 z M 108,30 l 3,0 0,3 -3,0 z M 111,30 l 3,0 0,3 -3,0 z M 114,30 l 3,0 0,3 -3,0 z M 117,30 l 3,0 0,3 -3,0 z M 120,30 l 3,0 0,3 -3,0 z M 132,30 l 3,0 0,3 -3,0 z M 138,30 l 3,0 0,3 -3,0 z M 147,30 l 3,0 0,3 -3,0 z M 150,30 l 3,0 0,3 -3,0 z M 153,30 l 3,0 0,3 -3,0 z M 156,30 l 3,0 0,3 -3,0 z M 177,30 l 3,0 0,3 -3,0 z M 186,30 l 3,0 0,3 -3,0 z M 192,30 l 3,0 0,3 -3,0 z M 198,30 l 3,0 0,3 -3,0 z M 201,30 l 3,0 0,3 -3,0 z M 204,30 l 3,0 0,3 -3,0 z M 210,30 l 3,0 0,3 -3,0 z M 18,33 l 3,0 0,3 -3,0 z M 36,33 l 3,0 0,3 -3,0 z M 42,33 l 3,0 0,3 -3,0 z M 51,33 l 3,0 0,3 -3,0 z M 54,33 l 3,0 0,3 -3,0 z M 60,33 l 3,0 0,3 -3,0 z M 69,33 l 3,0 0,3 -3,0 z M 72,33 l 3,0 0,3 -3,0 z M 90,33 l 3,0 0,3 -3,0 z M 93,33 l 3,0 0,3 -3,0 z M 99,33 l 3,0 0,3 -3,0 z M 102,33 l 3,0 0,3 -3,0 z M 105,33 l 3,0 0,3 -3,0 z M 108,33 l 3,0 0,3 -3,0 z M 120,33 l 3,0 0,3 -3,0 z M 123,33 l 3,0 0,3 -3,0 z M 126,33 l 3,0 0,3 -3,0 z M 144,33 l 3,0 0,3 -3,0 z M 147,33 l 3,0 0,3 -3,0 z M 159,33 l 3,0 0,3 -3,0 z M 162,33 l 3,0 0,3 -3,0 z M 171,33 l 3,0 0,3 -3,0 z M 174,33 l 3,0 0,3 -3,0 z M 180,33 l 3,0 0,3 -3,0 z M 192,33 l 3,0 0,3 -3,0 z M 210,33 l 3,0 0,3 -3,0 z M 18,36 l 3,0 0,3 -3,0 z M 21,36 l 3,0 0,3 -3,0 z M 24,36 l 3,0 0,3 -3,0 z M 27,36 l 3,0 0,3 -3,0 z M 30,36 l 3,0 0,3 -3,0 z M 33,36 l 3,0 0,3 -3,0 z M 36,36 l 3,0 0,3 -3,0 z M 42,36 l 3,0 0,3 -3,0 z M 48,36 l 3,0 0,3 -3,0 z M 54,36 l 3,0 0,3 -3,0 z M 60,36 l 3,0 0,3 -3,0 z M 66,36 l 3,0 0,3 -3,0 z M 72,36 l 3,0 0,3 -3,0 z M 78,36 l 3,0 0,3 -3,0 z M 84,36 l 3,0 0,3 -3,0 z M 90,36 l 3,0 0,3 -3,0 z M 96,36 l 3,0 0,3 -3,0 z M 102,36 l 3,0 0,3 -3,0 z M 108,36 l 3,0 0,3 -3,0 z M 114,36 l 3,0 0,3 -3,0 z M 120,36 l 3,0 0,3 -3,0 z M 126,36 l 3,0 0,3 -3,0 z M 132,36 l 3,0 0,3 -3,0 z M 138,36 l 3,0 0,3 -3,0 z M 144,36 l 3,0 0,3 -3,0 z M 150,36 l 3,0 0,3 -3,0 z M 156,36 l 3,0 0,3 -3,0 z M 162,36 l 3,0 0,3 -3,0 z M 168,36 l 3,0 0,3 -3,0 z M 174,36 l 3,0 0,3 -3,0 z M 180,36 l 3,0 0,3 -3,0 z M 186,36 l 3,0 0,3 -3,0 z M 192,36 l 3,0 0,3 -3,0 z M 195,36 l 3,0 0,3 -3,0 z M 198,36 l 3,0 0,3 -3,0 z M 201,36 l 3,0 0,3 -3,0 z M 204,36 l 3,0 0,3 -3,0 z M 207,36 l 3,0 0,3 -3,0 z M 210,36 l 3,0 0,3 -3,0 z M 48,39 l 3,0 0,3 -3,0 z M 57,39 l 3,0 0,3 -3,0 z M 63,39 l 3,0 0,3 -3,0 z M 72,39 l 3,0 0,3 -3,0 z M 75,39 l 3,0 0,3 -3,0 z M 81,39 l 3,0 0,3 -3,0 z M 84,39 l 3,0 0,3 -3,0 z M 87,39 l 3,0 0,3 -3,0 z M 90,39 l 3,0 0,3 -3,0 z M 96,39 l 3,0 0,3 -3,0 z M 99,39 l 3,0 0,3 -3,0 z M 108,39 l 3,0 0,3 -3,0 z M 120,39 l 3,0 0,3 -3,0 z M 123,39 l 3,0 0,3 -3,0 z M 126,39 l 3,0 0,3 -3,0 z M 141,39 l 3,0 0,3 -3,0 z M 150,39 l 3,0 0,3 -3,0 z M 153,39 l 3,0 0,3 -3,0 z M 183,39 l 3,0 0,3 -3,0 z M 18,42 l 3,0 0,3 -3,0 z M 21,42 l 3,0 0,3 -3,0 z M 24,42 l 3,0 0,3 -3,0 z M 27,42 l 3,0 0,3 -3,0 z M 30,42 l 3,0 0,3 -3,0 z M 36,42 l 3,0 0,3 -3,0 z M 39,42 l 3,0 0,3 -3,0 z M 42,42 l 3,0 0,3 -3,0 z M 45,42 l 3,0 0,3 -3,0 z M 51,42 l 3,0 0,3 -3,0 z M 54,42 l 3,0 0,3 -3,0 z M 66,42 l 3,0 0,3 -3,0 z M 69,42 l 3,0 0,3 -3,0 z M 72,42 l 3,0 0,3 -3,0 z M 81,42 l 3,0 0,3 -3,0 z M 87,42 l 3,0 0,3 -3,0 z M 90,42 l 3,0 0,3 -3,0 z M 93,42 l 3,0 0,3 -3,0 z M 99,42 l 3,0 0,3 -3,0 z M 108,42 l 3,0 0,3 -3,0 z M 111,42 l 3,0 0,3 -3,0 z M 114,42 l 3,0 0,3 -3,0 z M 117,42 l 3,0 0,3 -3,0 z M 120,42 l 3,0 0,3 -3,0 z M 123,42 l 3,0 0,3 -3,0 z M 129,42 l 3,0 0,3 -3,0 z M 135,42 l 3,0 0,3 -3,0 z M 138,42 l 3,0 0,3 -3,0 z M 141,42 l 3,0 0,3 -3,0 z M 144,42 l 3,0 0,3 -3,0 z M 153,42 l 3,0 0,3 -3,0 z M 156,42 l 3,0 0,3 -3,0 z M 168,42 l 3,0 0,3 -3,0 z M 186,42 l 3,0 0,3 -3,0 z M 189,42 l 3,0 0,3 -3,0 z M 195,42 l 3,0 0,3 -3,0 z M 201,42 l 3,0 0,3 -3,0 z M 207,42 l 3,0 0,3 -3,0 z M 18,45 l 3,0 0,3 -3,0 z M 27,45 l 3,0 0,3 -3,0 z M 48,45 l 3,0 0,3 -3,0 z M 51,45 l 3,0 0,3 -3,0 z M 54,45 l 3,0 0,3 -3,0 z M 57,45 l 3,0 0,3 -3,0 z M 63,45 l 3,0 0,3 -3,0 z M 69,45 l 3,0 0,3 -3,0 z M 72,45 l 3,0 0,3 -3,0 z M 75,45 l 3,0 0,3 -3,0 z M 84,45 l 3,0 0,3 -3,0 z M 102,45 l 3,0 0,3 -3,0 z M 108,45 l 3,0 0,3 -3,0 z M 114,45 l 3,0 0,3 -3,0 z M 123,45 l 3,0 0,3 -3,0 z M 129,45 l 3,0 0,3 -3,0 z M 135,45 l 3,0 0,3 -3,0 z M 138,45 l 3,0 0,3 -3,0 z M 141,45 l 3,0 0,3 -3,0 z M 144,45 l 3,0 0,3 -3,0 z M 153,45 l 3,0 0,3 -3,0 z M 165,45 l 3,0 0,3 -3,0 z M 174,45 l 3,0 0,3 -3,0 z M 180,45 l 3,0 0,3 -3,0 z M 183,45 l 3,0 0,3 -3,0 z M 189,45 l 3,0 0,3 -3,0 z M 192,45 l 3,0 0,3 -3,0 z M 195,45 l 3,0 0,3 -3,0 z M 201,45 l 3,0 0,3 -3,0 z M 204,45 l 3,0 0,3 -3,0 z M 207,45 l 3,0 0,3 -3,0 z M 18,48 l 3,0 0,3 -3,0 z M 21,48 l 3,0 0,3 -3,0 z M 27,48 l 3,0 0,3 -3,0 z M 36,48 l 3,0 0,3 -3,0 z M 51,48 l 3,0 0,3 -3,0 z M 54,48 l 3,0 0,3 -3,0 z M 63,48 l 3,0 0,3 -3,0 z M 69,48 l 3,0 0,3 -3,0 z M 75,48 l 3,0 0,3 -3,0 z M 81,48 l 3,0 0,3 -3,0 z M 84,48 l 3,0 0,3 -3,0 z M 87,48 l 3,0 0,3 -3,0 z M 93,48 l 3,0 0,3 -3,0 z M 99,48 l 3,0 0,3 -3,0 z M 102,48 l 3,0 0,3 -3,0 z M 105,48 l 3,0 0,3 -3,0 z M 111,48 l 3,0 0,3 -3,0 z M 114,48 l 3,0 0,3 -3,0 z M 117,48 l 3,0 0,3 -3,0 z M 126,48 l 3,0 0,3 -3,0 z M 129,48 l 3,0 0,3 -3,0 z M 135,48 l 3,0 0,3 -3,0 z M 144,48 l 3,0 0,3 -3,0 z M 147,48 l 3,0 0,3 -3,0 z M 153,48 l 3,0 0,3 -3,0 z M 162,48 l 3,0 0,3 -3,0 z M 174,48 l 3,0 0,3 -3,0 z M 180,48 l 3,0 0,3 -3,0 z M 186,48 l 3,0 0,3 -3,0 z M 192,48 l 3,0 0,3 -3,0 z M 198,48 l 3,0 0,3 -3,0 z M 207,48 l 3,0 0,3 -3,0 z M 27,51 l 3,0 0,3 -3,0 z M 33,51 l 3,0 0,3 -3,0 z M 42,51 l 3,0 0,3 -3,0 z M 45,51 l 3,0 0,3 -3,0 z M 63,51 l 3,0 0,3 -3,0 z M 66,51 l 3,0 0,3 -3,0 z M 72,51 l 3,0 0,3 -3,0 z M 75,51 l 3,0 0,3 -3,0 z M 81,51 l 3,0 0,3 -3,0 z M 84,51 l 3,0 0,3 -3,0 z M 87,51 l 3,0 0,3 -3,0 z M 90,51 l 3,0 0,3 -3,0 z M 117,51 l 3,0 0,3 -3,0 z M 126,51 l 3,0 0,3 -3,0 z M 129,51 l 3,0 0,3 -3,0 z M 138,51 l 3,0 0,3 -3,0 z M 141,51 l 3,0 0,3 -3,0 z M 144,51 l 3,0 0,3 -3,0 z M 147,51 l 3,0 0,3 -3,0 z M 150,51 l 3,0 0,3 -3,0 z M 165,51 l 3,0 0,3 -3,0 z M 168,51 l 3,0 0,3 -3,0 z M 171,51 l 3,0 0,3 -3,0 z M 177,51 l 3,0 0,3 -3,0 z M 180,51 l 3,0 0,3 -3,0 z M 183,51 l 3,0 0,3 -3,0 z M 189,51 l 3,0 0,3 -3,0 z M 198,51 l 3,0 0,3 -3,0 z M 201,51 l 3,0 0,3 -3,0 z M 204,51 l 3,0 0,3 -3,0 z M 207,51 l 3,0 0,3 -3,0 z M 21,54 l 3,0 0,3 -3,0 z M 24,54 l 3,0 0,3 -3,0 z M 27,54 l 3,0 0,3 -3,0 z M 36,54 l 3,0 0,3 -3,0 z M 42,54 l 3,0 0,3 -3,0 z M 51,54 l 3,0 0,3 -3,0 z M 54,54 l 3,0 0,3 -3,0 z M 63,54 l 3,0 0,3 -3,0 z M 66,54 l 3,0 0,3 -3,0 z M 69,54 l 3,0 0,3 -3,0 z M 75,54 l 3,0 0,3 -3,0 z M 84,54 l 3,0 0,3 -3,0 z M 87,54 l 3,0 0,3 -3,0 z M 90,54 l 3,0 0,3 -3,0 z M 93,54 l 3,0 0,3 -3,0 z M 96,54 l 3,0 0,3 -3,0 z M 111,54 l 3,0 0,3 -3,0 z M 114,54 l 3,0 0,3 -3,0 z M 120,54 l 3,0 0,3 -3,0 z M 123,54 l 3,0 0,3 -3,0 z M 135,54 l 3,0 0,3 -3,0 z M 141,54 l 3,0 0,3 -3,0 z M 153,54 l 3,0 0,3 -3,0 z M 156,54 l 3,0 0,3 -3,0 z M 159,54 l 3,0 0,3 -3,0 z M 171,54 l 3,0 0,3 -3,0 z M 180,54 l 3,0 0,3 -3,0 z M 186,54 l 3,0 0,3 -3,0 z M 189,54 l 3,0 0,3 -3,0 z M 207,54 l 3,0 0,3 -3,0 z M 18,57 l 3,0 0,3 -3,0 z M 21,57 l 3,0 0,3 -3,0 z M 24,57 l 3,0 0,3 -3,0 z M 30,57 l 3,0 0,3 -3,0 z M 33,57 l 3,0 0,3 -3,0 z M 39,57 l 3,0 0,3 -3,0 z M 42,57 l 3,0 0,3 -3,0 z M 45,57 l 3,0 0,3 -3,0 z M 48,57 l 3,0 0,3 -3,0 z M 60,57 l 3,0 0,3 -3,0 z M 63,57 l 3,0 0,3 -3,0 z M 72,57 l 3,0 0,3 -3,0 z M 81,57 l 3,0 0,3 -3,0 z M 90,57 l 3,0 0,3 -3,0 z M 93,57 l 3,0 0,3 -3,0 z M 99,57 l 3,0 0,3 -3,0 z M 108,57 l 3,0 0,3 -3,0 z M 138,57 l 3,0 0,3 -3,0 z M 141,57 l 3,0 0,3 -3,0 z M 144,57 l 3,0 0,3 -3,0 z M 147,57 l 3,0 0,3 -3,0 z M 150,57 l 3,0 0,3 -3,0 z M 153,57 l 3,0 0,3 -3,0 z M 156,57 l 3,0 0,3 -3,0 z M 168,57 l 3,0 0,3 -3,0 z M 171,57 l 3,0 0,3 -3,0 z M 186,57 l 3,0 0,3 -3,0 z M 189,57 l 3,0 0,3 -3,0 z M 201,57 l 3,0 0,3 -3,0 z M 210,57 l 3,0 0,3 -3,0 z M 18,60 l 3,0 0,3 -3,0 z M 27,60 l 3,0 0,3 -3,0 z M 30,60 l 3,0 0,3 -3,0 z M 36,60 l 3,0 0,3 -3,0 z M 42,60 l 3,0 0,3 -3,0 z M 48,60 l 3,0 0,3 -3,0 z M 51,60 l 3,0 0,3 -3,0 z M 63,60 l 3,0 0,3 -3,0 z M 66,60 l 3,0 0,3 -3,0 z M 69,60 l 3,0 0,3 -3,0 z M 72,60 l 3,0 0,3 -3,0 z M 75,60 l 3,0 0,3 -3,0 z M 87,60 l 3,0 0,3 -3,0 z M 90,60 l 3,0 0,3 -3,0 z M 105,60 l 3,0 0,3 -3,0 z M 108,60 l 3,0 0,3 -3,0 z M 111,60 l 3,0 0,3 -3,0 z M 123,60 l 3,0 0,3 -3,0 z M 126,60 l 3,0 0,3 -3,0 z M 144,60 l 3,0 0,3 -3,0 z M 147,60 l 3,0 0,3 -3,0 z M 159,60 l 3,0 0,3 -3,0 z M 162,60 l 3,0 0,3 -3,0 z M 168,60 l 3,0 0,3 -3,0 z M 171,60 l 3,0 0,3 -3,0 z M 177,60 l 3,0 0,3 -3,0 z M 180,60 l 3,0 0,3 -3,0 z M 186,60 l 3,0 0,3 -3,0 z M 189,60 l 3,0 0,3 -3,0 z M 18,63 l 3,0 0,3 -3,0 z M 21,63 l 3,0 0,3 -3,0 z M 33,63 l 3,0 0,3 -3,0 z M 39,63 l 3,0 0,3 -3,0 z M 54,63 l 3,0 0,3 -3,0 z M 60,63 l 3,0 0,3 -3,0 z M 69,63 l 3,0 0,3 -3,0 z M 81,63 l 3,0 0,3 -3,0 z M 84,63 l 3,0 0,3 -3,0 z M 90,63 l 3,0 0,3 -3,0 z M 96,63 l 3,0 0,3 -3,0 z M 99,63 l 3,0 0,3 -3,0 z M 108,63 l 3,0 0,3 -3,0 z M 111,63 l 3,0 0,3 -3,0 z M 126,63 l 3,0 0,3 -3,0 z M 132,63 l 3,0 0,3 -3,0 z M 138,63 l 3,0 0,3 -3,0 z M 144,63 l 3,0 0,3 -3,0 z M 147,63 l 3,0 0,3 -3,0 z M 150,63 l 3,0 0,3 -3,0 z M 153,63 l 3,0 0,3 -3,0 z M 159,63 l 3,0 0,3 -3,0 z M 162,63 l 3,0 0,3 -3,0 z M 165,63 l 3,0 0,3 -3,0 z M 171,63 l 3,0 0,3 -3,0 z M 174,63 l 3,0 0,3 -3,0 z M 177,63 l 3,0 0,3 -3,0 z M 180,63 l 3,0 0,3 -3,0 z M 183,63 l 3,0 0,3 -3,0 z M 186,63 l 3,0 0,3 -3,0 z M 189,63 l 3,0 0,3 -3,0 z M 198,63 l 3,0 0,3 -3,0 z M 18,66 l 3,0 0,3 -3,0 z M 21,66 l 3,0 0,3 -3,0 z M 24,66 l 3,0 0,3 -3,0 z M 27,66 l 3,0 0,3 -3,0 z M 33,66 l 3,0 0,3 -3,0 z M 36,66 l 3,0 0,3 -3,0 z M 39,66 l 3,0 0,3 -3,0 z M 51,66 l 3,0 0,3 -3,0 z M 54,66 l 3,0 0,3 -3,0 z M 66,66 l 3,0 0,3 -3,0 z M 72,66 l 3,0 0,3 -3,0 z M 75,66 l 3,0 0,3 -3,0 z M 78,66 l 3,0 0,3 -3,0 z M 81,66 l 3,0 0,3 -3,0 z M 90,66 l 3,0 0,3 -3,0 z M 93,66 l 3,0 0,3 -3,0 z M 96,66 l 3,0 0,3 -3,0 z M 99,66 l 3,0 0,3 -3,0 z M 102,66 l 3,0 0,3 -3,0 z M 105,66 l 3,0 0,3 -3,0 z M 108,66 l 3,0 0,3 -3,0 z M 117,66 l 3,0 0,3 -3,0 z M 120,66 l 3,0 0,3 -3,0 z M 132,66 l 3,0 0,3 -3,0 z M 135,66 l 3,0 0,3 -3,0 z M 141,66 l 3,0 0,3 -3,0 z M 156,66 l 3,0 0,3 -3,0 z M 162,66 l 3,0 0,3 -3,0 z M 165,66 l 3,0 0,3 -3,0 z M 168,66 l 3,0 0,3 -3,0 z M 171,66 l 3,0 0,3 -3,0 z M 189,66 l 3,0 0,3 -3,0 z M 198,66 l 3,0 0,3 -3,0 z M 201,66 l 3,0 0,3 -3,0 z M 24,69 l 3,0 0,3 -3,0 z M 33,69 l 3,0 0,3 -3,0 z M 39,69 l 3,0 0,3 -3,0 z M 42,69 l 3,0 0,3 -3,0 z M 51,69 l 3,0 0,3 -3,0 z M 54,69 l 3,0 0,3 -3,0 z M 60,69 l 3,0 0,3 -3,0 z M 63,69 l 3,0 0,3 -3,0 z M 66,69 l 3,0 0,3 -3,0 z M 81,69 l 3,0 0,3 -3,0 z M 84,69 l 3,0 0,3 -3,0 z M 87,69 l 3,0 0,3 -3,0 z M 90,69 l 3,0 0,3 -3,0 z M 93,69 l 3,0 0,3 -3,0 z M 96,69 l 3,0 0,3 -3,0 z M 99,69 l 3,0 0,3 -3,0 z M 102,69 l 3,0 0,3 -3,0 z M 105,69 l 3,0 0,3 -3,0 z M 108,69 l 3,0 0,3 -3,0 z M 120,69 l 3,0 0,3 -3,0 z M 126,69 l 3,0 0,3 -3,0 z M 129,69 l 3,0 0,3 -3,0 z M 132,69 l 3,0 0,3 -3,0 z M 135,69 l 3,0 0,3 -3,0 z M 138,69 l 3,0 0,3 -3,0 z M 147,69 l 3,0 0,3 -3,0 z M 150,69 l 3,0 0,3 -3,0 z M 153,69 l 3,0 0,3 -3,0 z M 156,69 l 3,0 0,3 -3,0 z M 171,69 l 3,0 0,3 -3,0 z M 192,69 l 3,0 0,3 -3,0 z M 195,69 l 3,0 0,3 -3,0 z M 207,69 l 3,0 0,3 -3,0 z M 210,69 l 3,0 0,3 -3,0 z M 18,72 l 3,0 0,3 -3,0 z M 21,72 l 3,0 0,3 -3,0 z M 33,72 l 3,0 0,3 -3,0 z M 36,72 l 3,0 0,3 -3,0 z M 39,72 l 3,0 0,3 -3,0 z M 45,72 l 3,0 0,3 -3,0 z M 51,72 l 3,0 0,3 -3,0 z M 54,72 l 3,0 0,3 -3,0 z M 60,72 l 3,0 0,3 -3,0 z M 66,72 l 3,0 0,3 -3,0 z M 72,72 l 3,0 0,3 -3,0 z M 78,72 l 3,0 0,3 -3,0 z M 81,72 l 3,0 0,3 -3,0 z M 102,72 l 3,0 0,3 -3,0 z M 108,72 l 3,0 0,3 -3,0 z M 111,72 l 3,0 0,3 -3,0 z M 120,72 l 3,0 0,3 -3,0 z M 126,72 l 3,0 0,3 -3,0 z M 129,72 l 3,0 0,3 -3,0 z M 135,72 l 3,0 0,3 -3,0 z M 138,72 l 3,0 0,3 -3,0 z M 141,72 l 3,0 0,3 -3,0 z M 147,72 l 3,0 0,3 -3,0 z M 156,72 l 3,0 0,3 -3,0 z M 159,72 l 3,0 0,3 -3,0 z M 162,72 l 3,0 0,3 -3,0 z M 168,72 l 3,0 0,3 -3,0 z M 177,72 l 3,0 0,3 -3,0 z M 180,72 l 3,0 0,3 -3,0 z M 189,72 l 3,0 0,3 -3,0 z M 201,72 l 3,0 0,3 -3,0 z M 207,72 l 3,0 0,3 -3,0 z M 210,72 l 3,0 0,3 -3,0 z M 21,75 l 3,0 0,3 -3,0 z M 27,75 l 3,0 0,3 -3,0 z M 45,75 l 3,0 0,3 -3,0 z M 54,75 l 3,0 0,3 -3,0 z M 60,75 l 3,0 0,3 -3,0 z M 66,75 l 3,0 0,3 -3,0 z M 69,75 l 3,0 0,3 -3,0 z M 72,75 l 3,0 0,3 -3,0 z M 75,75 l 3,0 0,3 -3,0 z M 87,75 l 3,0 0,3 -3,0 z M 90,75 l 3,0 0,3 -3,0 z M 93,75 l 3,0 0,3 -3,0 z M 99,75 l 3,0 0,3 -3,0 z M 105,75 l 3,0 0,3 -3,0 z M 108,75 l 3,0 0,3 -3,0 z M 117,75 l 3,0 0,3 -3,0 z M 129,75 l 3,0 0,3 -3,0 z M 141,75 l 3,0 0,3 -3,0 z M 144,75 l 3,0 0,3 -3,0 z M 147,75 l 3,0 0,3 -3,0 z M 159,75 l 3,0 0,3 -3,0 z M 174,75 l 3,0 0,3 -3,0 z M 177,75 l 3,0 0,3 -3,0 z M 189,75 l 3,0 0,3 -3,0 z M 198,75 l 3,0 0,3 -3,0 z M 201,75 l 3,0 0,3 -3,0 z M 207,75 l 3,0 0,3 -3,0 z M 21,78 l 3,0 0,3 -3,0 z M 36,78 l 3,0 0,3 -3,0 z M 42,78 l 3,0 0,3 -3,0 z M 45,78 l 3,0 0,3 -3,0 z M 51,78 l 3,0 0,3 -3,0 z M 60,78 l 3,0 0,3 -3,0 z M 72,78 l 3,0 0,3 -3,0 z M 78,78 l 3,0 0,3 -3,0 z M 81,78 l 3,0 0,3 -3,0 z M 90,78 l 3,0 0,3 -3,0 z M 105,78 l 3,0 0,3 -3,0 z M 108,78 l 3,0 0,3 -3,0 z M 111,78 l 3,0 0,3 -3,0 z M 117,78 l 3,0 0,3 -3,0 z M 123,78 l 3,0 0,3 -3,0 z M 132,78 l 3,0 0,3 -3,0 z M 153,78 l 3,0 0,3 -3,0 z M 156,78 l 3,0 0,3 -3,0 z M 159,78 l 3,0 0,3 -3,0 z M 177,78 l 3,0 0,3 -3,0 z M 180,78 l 3,0 0,3 -3,0 z M 189,78 l 3,0 0,3 -3,0 z M 192,78 l 3,0 0,3 -3,0 z M 195,78 l 3,0 0,3 -3,0 z M 198,78 l 3,0 0,3 -3,0 z M 207,78 l 3,0 0,3 -3,0 z M 21,81 l 3,0 0,3 -3,0 z M 33,81 l 3,0 0,3 -3,0 z M 39,81 l 3,0 0,3 -3,0 z M 42,81 l 3,0 0,3 -3,0 z M 63,81 l 3,0 0,3 -3,0 z M 69,81 l 3,0 0,3 -3,0 z M 72,81 l 3,0 0,3 -3,0 z M 75,81 l 3,0 0,3 -3,0 z M 78,81 l 3,0 0,3 -3,0 z M 87,81 l 3,0 0,3 -3,0 z M 93,81 l 3,0 0,3 -3,0 z M 105,81 l 3,0 0,3 -3,0 z M 111,81 l 3,0 0,3 -3,0 z M 117,81 l 3,0 0,3 -3,0 z M 135,81 l 3,0 0,3 -3,0 z M 138,81 l 3,0 0,3 -3,0 z M 144,81 l 3,0 0,3 -3,0 z M 150,81 l 3,0 0,3 -3,0 z M 156,81 l 3,0 0,3 -3,0 z M 168,81 l 3,0 0,3 -3,0 z M 171,81 l 3,0 0,3 -3,0 z M 174,81 l 3,0 0,3 -3,0 z M 189,81 l 3,0 0,3 -3,0 z M 192,81 l 3,0 0,3 -3,0 z M 195,81 l 3,0 0,3 -3,0 z M 198,81 l 3,0 0,3 -3,0 z M 204,81 l 3,0 0,3 -3,0 z M 18,84 l 3,0 0,3 -3,0 z M 21,84 l 3,0 0,3 -3,0 z M 33,84 l 3,0 0,3 -3,0 z M 36,84 l 3,0 0,3 -3,0 z M 39,84 l 3,0 0,3 -3,0 z M 42,84 l 3,0 0,3 -3,0 z M 45,84 l 3,0 0,3 -3,0 z M 48,84 l 3,0 0,3 -3,0 z M 69,84 l 3,0 0,3 -3,0 z M 72,84 l 3,0 0,3 -3,0 z M 78,84 l 3,0 0,3 -3,0 z M 93,84 l 3,0 0,3 -3,0 z M 99,84 l 3,0 0,3 -3,0 z M 105,84 l 3,0 0,3 -3,0 z M 111,84 l 3,0 0,3 -3,0 z M 117,84 l 3,0 0,3 -3,0 z M 126,84 l 3,0 0,3 -3,0 z M 129,84 l 3,0 0,3 -3,0 z M 141,84 l 3,0 0,3 -3,0 z M 144,84 l 3,0 0,3 -3,0 z M 147,84 l 3,0 0,3 -3,0 z M 153,84 l 3,0 0,3 -3,0 z M 159,84 l 3,0 0,3 -3,0 z M 162,84 l 3,0 0,3 -3,0 z M 168,84 l 3,0 0,3 -3,0 z M 171,84 l 3,0 0,3 -3,0 z M 177,84 l 3,0 0,3 -3,0 z M 186,84 l 3,0 0,3 -3,0 z M 195,84 l 3,0 0,3 -3,0 z M 30,87 l 3,0 0,3 -3,0 z M 33,87 l 3,0 0,3 -3,0 z M 48,87 l 3,0 0,3 -3,0 z M 51,87 l 3,0 0,3 -3,0 z M 57,87 l 3,0 0,3 -3,0 z M 60,87 l 3,0 0,3 -3,0 z M 63,87 l 3,0 0,3 -3,0 z M 72,87 l 3,0 0,3 -3,0 z M 75,87 l 3,0 0,3 -3,0 z M 78,87 l 3,0 0,3 -3,0 z M 81,87 l 3,0 0,3 -3,0 z M 84,87 l 3,0 0,3 -3,0 z M 90,87 l 3,0 0,3 -3,0 z M 96,87 l 3,0 0,3 -3,0 z M 99,87 l 3,0 0,3 -3,0 z M 108,87 l 3,0 0,3 -3,0 z M 111,87 l 3,0 0,3 -3,0 z M 123,87 l 3,0 0,3 -3,0 z M 126,87 l 3,0 0,3 -3,0 z M 135,87 l 3,0 0,3 -3,0 z M 150,87 l 3,0 0,3 -3,0 z M 153,87 l 3,0 0,3 -3,0 z M 159,87 l 3,0 0,3 -3,0 z M 168,87 l 3,0 0,3 -3,0 z M 171,87 l 3,0 0,3 -3,0 z M 183,87 l 3,0 0,3 -3,0 z M 195,87 l 3,0 0,3 -3,0 z M 207,87 l 3,0 0,3 -3,0 z M 30,90 l 3,0 0,3 -3,0 z M 33,90 l 3,0 0,3 -3,0 z M 36,90 l 3,0 0,3 -3,0 z M 45,90 l 3,0 0,3 -3,0 z M 48,90 l 3,0 0,3 -3,0 z M 51,90 l 3,0 0,3 -3,0 z M 60,90 l 3,0 0,3 -3,0 z M 66,90 l 3,0 0,3 -3,0 z M 69,90 l 3,0 0,3 -3,0 z M 78,90 l 3,0 0,3 -3,0 z M 84,90 l 3,0 0,3 -3,0 z M 90,90 l 3,0 0,3 -3,0 z M 105,90 l 3,0 0,3 -3,0 z M 117,90 l 3,0 0,3 -3,0 z M 120,90 l 3,0 0,3 -3,0 z M 126,90 l 3,0 0,3 -3,0 z M 129,90 l 3,0 0,3 -3,0 z M 132,90 l 3,0 0,3 -3,0 z M 135,90 l 3,0 0,3 -3,0 z M 144,90 l 3,0 0,3 -3,0 z M 147,90 l 3,0 0,3 -3,0 z M 153,90 l 3,0 0,3 -3,0 z M 165,90 l 3,0 0,3 -3,0 z M 168,90 l 3,0 0,3 -3,0 z M 189,90 l 3,0 0,3 -3,0 z M 201,90 l 3,0 0,3 -3,0 z M 204,90 l 3,0 0,3 -3,0 z M 207,90 l 3,0 0,3 -3,0 z M 210,90 l 3,0 0,3 -3,0 z M 18,93 l 3,0 0,3 -3,0 z M 21,93 l 3,0 0,3 -3,0 z M 27,93 l 3,0 0,3 -3,0 z M 45,93 l 3,0 0,3 -3,0 z M 57,93 l 3,0 0,3 -3,0 z M 60,93 l 3,0 0,3 -3,0 z M 66,93 l 3,0 0,3 -3,0 z M 72,93 l 3,0 0,3 -3,0 z M 78,93 l 3,0 0,3 -3,0 z M 84,93 l 3,0 0,3 -3,0 z M 87,93 l 3,0 0,3 -3,0 z M 90,93 l 3,0 0,3 -3,0 z M 93,93 l 3,0 0,3 -3,0 z M 99,93 l 3,0 0,3 -3,0 z M 102,93 l 3,0 0,3 -3,0 z M 105,93 l 3,0 0,3 -3,0 z M 108,93 l 3,0 0,3 -3,0 z M 111,93 l 3,0 0,3 -3,0 z M 117,93 l 3,0 0,3 -3,0 z M 129,93 l 3,0 0,3 -3,0 z M 138,93 l 3,0 0,3 -3,0 z M 144,93 l 3,0 0,3 -3,0 z M 150,93 l 3,0 0,3 -3,0 z M 153,93 l 3,0 0,3 -3,0 z M 159,93 l 3,0 0,3 -3,0 z M 162,93 l 3,0 0,3 -3,0 z M 174,93 l 3,0 0,3 -3,0 z M 177,93 l 3,0 0,3 -3,0 z M 180,93 l 3,0 0,3 -3,0 z M 186,93 l 3,0 0,3 -3,0 z M 192,93 l 3,0 0,3 -3,0 z M 195,93 l 3,0 0,3 -3,0 z M 201,93 l 3,0 0,3 -3,0 z M 207,93 l 3,0 0,3 -3,0 z M 33,96 l 3,0 0,3 -3,0 z M 36,96 l 3,0 0,3 -3,0 z M 51,96 l 3,0 0,3 -3,0 z M 54,96 l 3,0 0,3 -3,0 z M 63,96 l 3,0 0,3 -3,0 z M 66,96 l 3,0 0,3 -3,0 z M 81,96 l 3,0 0,3 -3,0 z M 87,96 l 3,0 0,3 -3,0 z M 93,96 l 3,0 0,3 -3,0 z M 96,96 l 3,0 0,3 -3,0 z M 99,96 l 3,0 0,3 -3,0 z M 102,96 l 3,0 0,3 -3,0 z M 126,96 l 3,0 0,3 -3,0 z M 129,96 l 3,0 0,3 -3,0 z M 135,96 l 3,0 0,3 -3,0 z M 153,96 l 3,0 0,3 -3,0 z M 165,96 l 3,0 0,3 -3,0 z M 168,96 l 3,0 0,3 -3,0 z M 177,96 l 3,0 0,3 -3,0 z M 180,96 l 3,0 0,3 -3,0 z M 186,96 l 3,0 0,3 -3,0 z M 189,96 l 3,0 0,3 -3,0 z M 192,96 l 3,0 0,3 -3,0 z M 198,96 l 3,0 0,3 -3,0 z M 204,96 l 3,0 0,3 -3,0 z M 210,96 l 3,0 0,3 -3,0 z M 21,99 l 3,0 0,3 -3,0 z M 27,99 l 3,0 0,3 -3,0 z M 39,99 l 3,0 0,3 -3,0 z M 60,99 l 3,0 0,3 -3,0 z M 81,99 l 3,0 0,3 -3,0 z M 84,99 l 3,0 0,3 -3,0 z M 87,99 l 3,0 0,3 -3,0 z M 90,99 l 3,0 0,3 -3,0 z M 96,99 l 3,0 0,3 -3,0 z M 114,99 l 3,0 0,3 -3,0 z M 117,99 l 3,0 0,3 -3,0 z M 123,99 l 3,0 0,3 -3,0 z M 126,99 l 3,0 0,3 -3,0 z M 129,99 l 3,0 0,3 -3,0 z M 141,99 l 3,0 0,3 -3,0 z M 144,99 l 3,0 0,3 -3,0 z M 147,99 l 3,0 0,3 -3,0 z M 159,99 l 3,0 0,3 -3,0 z M 165,99 l 3,0 0,3 -3,0 z M 171,99 l 3,0 0,3 -3,0 z M 177,99 l 3,0 0,3 -3,0 z M 180,99 l 3,0 0,3 -3,0 z M 183,99 l 3,0 0,3 -3,0 z M 189,99 l 3,0 0,3 -3,0 z M 195,99 l 3,0 0,3 -3,0 z M 198,99 l 3,0 0,3 -3,0 z M 201,99 l 3,0 0,3 -3,0 z M 204,99 l 3,0 0,3 -3,0 z M 210,99 l 3,0 0,3 -3,0 z M 30,102 l 3,0 0,3 -3,0 z M 36,102 l 3,0 0,3 -3,0 z M 42,102 l 3,0 0,3 -3,0 z M 48,102 l 3,0 0,3 -3,0 z M 51,102 l 3,0 0,3 -3,0 z M 54,102 l 3,0 0,3 -3,0 z M 57,102 l 3,0 0,3 -3,0 z M 60,102 l 3,0 0,3 -3,0 z M 63,102 l 3,0 0,3 -3,0 z M 69,102 l 3,0 0,3 -3,0 z M 84,102 l 3,0 0,3 -3,0 z M 90,102 l 3,0 0,3 -3,0 z M 93,102 l 3,0 0,3 -3,0 z M 96,102 l 3,0 0,3 -3,0 z M 99,102 l 3,0 0,3 -3,0 z M 108,102 l 3,0 0,3 -3,0 z M 132,102 l 3,0 0,3 -3,0 z M 135,102 l 3,0 0,3 -3,0 z M 141,102 l 3,0 0,3 -3,0 z M 153,102 l 3,0 0,3 -3,0 z M 156,102 l 3,0 0,3 -3,0 z M 159,102 l 3,0 0,3 -3,0 z M 183,102 l 3,0 0,3 -3,0 z M 189,102 l 3,0 0,3 -3,0 z M 201,102 l 3,0 0,3 -3,0 z M 207,102 l 3,0 0,3 -3,0 z M 210,102 l 3,0 0,3 -3,0 z M 18,105 l 3,0 0,3 -3,0 z M 24,105 l 3,0 0,3 -3,0 z M 27,105 l 3,0 0,3 -3,0 z M 30,105 l 3,0 0,3 -3,0 z M 42,105 l 3,0 0,3 -3,0 z M 45,105 l 3,0 0,3 -3,0 z M 48,105 l 3,0 0,3 -3,0 z M 51,105 l 3,0 0,3 -3,0 z M 54,105 l 3,0 0,3 -3,0 z M 66,105 l 3,0 0,3 -3,0 z M 75,105 l 3,0 0,3 -3,0 z M 78,105 l 3,0 0,3 -3,0 z M 81,105 l 3,0 0,3 -3,0 z M 84,105 l 3,0 0,3 -3,0 z M 87,105 l 3,0 0,3 -3,0 z M 93,105 l 3,0 0,3 -3,0 z M 102,105 l 3,0 0,3 -3,0 z M 105,105 l 3,0 0,3 -3,0 z M 111,105 l 3,0 0,3 -3,0 z M 129,105 l 3,0 0,3 -3,0 z M 135,105 l 3,0 0,3 -3,0 z M 138,105 l 3,0 0,3 -3,0 z M 150,105 l 3,0 0,3 -3,0 z M 156,105 l 3,0 0,3 -3,0 z M 165,105 l 3,0 0,3 -3,0 z M 168,105 l 3,0 0,3 -3,0 z M 177,105 l 3,0 0,3 -3,0 z M 180,105 l 3,0 0,3 -3,0 z M 186,105 l 3,0 0,3 -3,0 z M 189,105 l 3,0 0,3 -3,0 z M 201,105 l 3,0 0,3 -3,0 z M 210,105 l 3,0 0,3 -3,0 z M 18,108 l 3,0 0,3 -3,0 z M 21,108 l 3,0 0,3 -3,0 z M 24,108 l 3,0 0,3 -3,0 z M 27,108 l 3,0 0,3 -3,0 z M 30,108 l 3,0 0,3 -3,0 z M 33,108 l 3,0 0,3 -3,0 z M 36,108 l 3,0 0,3 -3,0 z M 39,108 l 3,0 0,3 -3,0 z M 42,108 l 3,0 0,3 -3,0 z M 48,108 l 3,0 0,3 -3,0 z M 63,108 l 3,0 0,3 -3,0 z M 66,108 l 3,0 0,3 -3,0 z M 69,108 l 3,0 0,3 -3,0 z M 72,108 l 3,0 0,3 -3,0 z M 78,108 l 3,0 0,3 -3,0 z M 93,108 l 3,0 0,3 -3,0 z M 99,108 l 3,0 0,3 -3,0 z M 102,108 l 3,0 0,3 -3,0 z M 105,108 l 3,0 0,3 -3,0 z M 108,108 l 3,0 0,3 -3,0 z M 111,108 l 3,0 0,3 -3,0 z M 114,108 l 3,0 0,3 -3,0 z M 117,108 l 3,0 0,3 -3,0 z M 120,108 l 3,0 0,3 -3,0 z M 123,108 l 3,0 0,3 -3,0 z M 126,108 l 3,0 0,3 -3,0 z M 129,108 l 3,0 0,3 -3,0 z M 132,108 l 3,0 0,3 -3,0 z M 141,108 l 3,0 0,3 -3,0 z M 144,108 l 3,0 0,3 -3,0 z M 147,108 l 3,0 0,3 -3,0 z M 153,108 l 3,0 0,3 -3,0 z M 159,108 l 3,0 0,3 -3,0 z M 162,108 l 3,0 0,3 -3,0 z M 168,108 l 3,0 0,3 -3,0 z M 171,108 l 3,0 0,3 -3,0 z M 177,108 l 3,0 0,3 -3,0 z M 186,108 l 3,0 0,3 -3,0 z M 189,108 l 3,0 0,3 -3,0 z M 192,108 l 3,0 0,3 -3,0 z M 195,108 l 3,0 0,3 -3,0 z M 198,108 l 3,0 0,3 -3,0 z M 210,108 l 3,0 0,3 -3,0 z M 21,111 l 3,0 0,3 -3,0 z M 27,111 l 3,0 0,3 -3,0 z M 30,111 l 3,0 0,3 -3,0 z M 42,111 l 3,0 0,3 -3,0 z M 45,111 l 3,0 0,3 -3,0 z M 48,111 l 3,0 0,3 -3,0 z M 51,111 l 3,0 0,3 -3,0 z M 60,111 l 3,0 0,3 -3,0 z M 66,111 l 3,0 0,3 -3,0 z M 75,111 l 3,0 0,3 -3,0 z M 78,111 l 3,0 0,3 -3,0 z M 81,111 l 3,0 0,3 -3,0 z M 84,111 l 3,0 0,3 -3,0 z M 87,111 l 3,0 0,3 -3,0 z M 93,111 l 3,0 0,3 -3,0 z M 96,111 l 3,0 0,3 -3,0 z M 102,111 l 3,0 0,3 -3,0 z M 108,111 l 3,0 0,3 -3,0 z M 120,111 l 3,0 0,3 -3,0 z M 126,111 l 3,0 0,3 -3,0 z M 129,111 l 3,0 0,3 -3,0 z M 135,111 l 3,0 0,3 -3,0 z M 138,111 l 3,0 0,3 -3,0 z M 141,111 l 3,0 0,3 -3,0 z M 144,111 l 3,0 0,3 -3,0 z M 150,111 l 3,0 0,3 -3,0 z M 153,111 l 3,0 0,3 -3,0 z M 162,111 l 3,0 0,3 -3,0 z M 165,111 l 3,0 0,3 -3,0 z M 171,111 l 3,0 0,3 -3,0 z M 177,111 l 3,0 0,3 -3,0 z M 180,111 l 3,0 0,3 -3,0 z M 183,111 l 3,0 0,3 -3,0 z M 186,111 l 3,0 0,3 -3,0 z M 198,111 l 3,0 0,3 -3,0 z M 201,111 l 3,0 0,3 -3,0 z M 210,111 l 3,0 0,3 -3,0 z M 18,114 l 3,0 0,3 -3,0 z M 30,114 l 3,0 0,3 -3,0 z M 36,114 l 3,0 0,3 -3,0 z M 42,114 l 3,0 0,3 -3,0 z M 48,114 l 3,0 0,3 -3,0 z M 54,114 l 3,0 0,3 -3,0 z M 66,114 l 3,0 0,3 -3,0 z M 69,114 l 3,0 0,3 -3,0 z M 75,114 l 3,0 0,3 -3,0 z M 90,114 l 3,0 0,3 -3,0 z M 102,114 l 3,0 0,3 -3,0 z M 105,114 l 3,0 0,3 -3,0 z M 108,114 l 3,0 0,3 -3,0 z M 114,114 l 3,0 0,3 -3,0 z M 120,114 l 3,0 0,3 -3,0 z M 126,114 l 3,0 0,3 -3,0 z M 129,114 l 3,0 0,3 -3,0 z M 132,114 l 3,0 0,3 -3,0 z M 135,114 l 3,0 0,3 -3,0 z M 141,114 l 3,0 0,3 -3,0 z M 144,114 l 3,0 0,3 -3,0 z M 156,114 l 3,0 0,3 -3,0 z M 168,114 l 3,0 0,3 -3,0 z M 171,114 l 3,0 0,3 -3,0 z M 183,114 l 3,0 0,3 -3,0 z M 186,114 l 3,0 0,3 -3,0 z M 192,114 l 3,0 0,3 -3,0 z M 198,114 l 3,0 0,3 -3,0 z M 30,117 l 3,0 0,3 -3,0 z M 42,117 l 3,0 0,3 -3,0 z M 54,117 l 3,0 0,3 -3,0 z M 57,117 l 3,0 0,3 -3,0 z M 63,117 l 3,0 0,3 -3,0 z M 78,117 l 3,0 0,3 -3,0 z M 87,117 l 3,0 0,3 -3,0 z M 96,117 l 3,0 0,3 -3,0 z M 99,117 l 3,0 0,3 -3,0 z M 105,117 l 3,0 0,3 -3,0 z M 108,117 l 3,0 0,3 -3,0 z M 120,117 l 3,0 0,3 -3,0 z M 126,117 l 3,0 0,3 -3,0 z M 129,117 l 3,0 0,3 -3,0 z M 132,117 l 3,0 0,3 -3,0 z M 141,117 l 3,0 0,3 -3,0 z M 144,117 l 3,0 0,3 -3,0 z M 147,117 l 3,0 0,3 -3,0 z M 150,117 l 3,0 0,3 -3,0 z M 153,117 l 3,0 0,3 -3,0 z M 156,117 l 3,0 0,3 -3,0 z M 165,117 l 3,0 0,3 -3,0 z M 168,117 l 3,0 0,3 -3,0 z M 171,117 l 3,0 0,3 -3,0 z M 174,117 l 3,0 0,3 -3,0 z M 177,117 l 3,0 0,3 -3,0 z M 180,117 l 3,0 0,3 -3,0 z M 183,117 l 3,0 0,3 -3,0 z M 186,117 l 3,0 0,3 -3,0 z M 198,117 l 3,0 0,3 -3,0 z M 210,117 l 3,0 0,3 -3,0 z M 24,120 l 3,0 0,3 -3,0 z M 30,120 l 3,0 0,3 -3,0 z M 33,120 l 3,0 0,3 -3,0 z M 36,120 l 3,0 0,3 -3,0 z M 39,120 l 3,0 0,3 -3,0 z M 42,120 l 3,0 0,3 -3,0 z M 45,120 l 3,0 0,3 -3,0 z M 48,120 l 3,0 0,3 -3,0 z M 51,120 l 3,0 0,3 -3,0 z M 60,120 l 3,0 0,3 -3,0 z M 63,120 l 3,0 0,3 -3,0 z M 66,120 l 3,0 0,3 -3,0 z M 69,120 l 3,0 0,3 -3,0 z M 75,120 l 3,0 0,3 -3,0 z M 78,120 l 3,0 0,3 -3,0 z M 84,120 l 3,0 0,3 -3,0 z M 93,120 l 3,0 0,3 -3,0 z M 96,120 l 3,0 0,3 -3,0 z M 102,120 l 3,0 0,3 -3,0 z M 108,120 l 3,0 0,3 -3,0 z M 111,120 l 3,0 0,3 -3,0 z M 114,120 l 3,0 0,3 -3,0 z M 117,120 l 3,0 0,3 -3,0 z M 120,120 l 3,0 0,3 -3,0 z M 126,120 l 3,0 0,3 -3,0 z M 129,120 l 3,0 0,3 -3,0 z M 132,120 l 3,0 0,3 -3,0 z M 135,120 l 3,0 0,3 -3,0 z M 141,120 l 3,0 0,3 -3,0 z M 144,120 l 3,0 0,3 -3,0 z M 156,120 l 3,0 0,3 -3,0 z M 159,120 l 3,0 0,3 -3,0 z M 162,120 l 3,0 0,3 -3,0 z M 165,120 l 3,0 0,3 -3,0 z M 171,120 l 3,0 0,3 -3,0 z M 177,120 l 3,0 0,3 -3,0 z M 180,120 l 3,0 0,3 -3,0 z M 186,120 l 3,0 0,3 -3,0 z M 189,120 l 3,0 0,3 -3,0 z M 192,120 l 3,0 0,3 -3,0 z M 195,120 l 3,0 0,3 -3,0 z M 198,120 l 3,0 0,3 -3,0 z M 201,120 l 3,0 0,3 -3,0 z M 204,120 l 3,0 0,3 -3,0 z M 210,120 l 3,0 0,3 -3,0 z M 18,123 l 3,0 0,3 -3,0 z M 21,123 l 3,0 0,3 -3,0 z M 24,123 l 3,0 0,3 -3,0 z M 27,123 l 3,0 0,3 -3,0 z M 30,123 l 3,0 0,3 -3,0 z M 39,123 l 3,0 0,3 -3,0 z M 45,123 l 3,0 0,3 -3,0 z M 54,123 l 3,0 0,3 -3,0 z M 75,123 l 3,0 0,3 -3,0 z M 81,123 l 3,0 0,3 -3,0 z M 84,123 l 3,0 0,3 -3,0 z M 87,123 l 3,0 0,3 -3,0 z M 90,123 l 3,0 0,3 -3,0 z M 96,123 l 3,0 0,3 -3,0 z M 108,123 l 3,0 0,3 -3,0 z M 111,123 l 3,0 0,3 -3,0 z M 117,123 l 3,0 0,3 -3,0 z M 126,123 l 3,0 0,3 -3,0 z M 135,123 l 3,0 0,3 -3,0 z M 138,123 l 3,0 0,3 -3,0 z M 144,123 l 3,0 0,3 -3,0 z M 147,123 l 3,0 0,3 -3,0 z M 165,123 l 3,0 0,3 -3,0 z M 177,123 l 3,0 0,3 -3,0 z M 180,123 l 3,0 0,3 -3,0 z M 201,123 l 3,0 0,3 -3,0 z M 207,123 l 3,0 0,3 -3,0 z M 210,123 l 3,0 0,3 -3,0 z M 18,126 l 3,0 0,3 -3,0 z M 27,126 l 3,0 0,3 -3,0 z M 30,126 l 3,0 0,3 -3,0 z M 33,126 l 3,0 0,3 -3,0 z M 36,126 l 3,0 0,3 -3,0 z M 42,126 l 3,0 0,3 -3,0 z M 63,126 l 3,0 0,3 -3,0 z M 69,126 l 3,0 0,3 -3,0 z M 75,126 l 3,0 0,3 -3,0 z M 84,126 l 3,0 0,3 -3,0 z M 90,126 l 3,0 0,3 -3,0 z M 93,126 l 3,0 0,3 -3,0 z M 96,126 l 3,0 0,3 -3,0 z M 99,126 l 3,0 0,3 -3,0 z M 105,126 l 3,0 0,3 -3,0 z M 108,126 l 3,0 0,3 -3,0 z M 111,126 l 3,0 0,3 -3,0 z M 114,126 l 3,0 0,3 -3,0 z M 123,126 l 3,0 0,3 -3,0 z M 129,126 l 3,0 0,3 -3,0 z M 132,126 l 3,0 0,3 -3,0 z M 138,126 l 3,0 0,3 -3,0 z M 144,126 l 3,0 0,3 -3,0 z M 147,126 l 3,0 0,3 -3,0 z M 153,126 l 3,0 0,3 -3,0 z M 156,126 l 3,0 0,3 -3,0 z M 162,126 l 3,0 0,3 -3,0 z M 174,126 l 3,0 0,3 -3,0 z M 180,126 l 3,0 0,3 -3,0 z M 189,126 l 3,0 0,3 -3,0 z M 192,126 l 3,0 0,3 -3,0 z M 198,126 l 3,0 0,3 -3,0 z M 201,126 l 3,0 0,3 -3,0 z M 204,126 l 3,0 0,3 -3,0 z M 207,126 l 3,0 0,3 -3,0 z M 18,129 l 3,0 0,3 -3,0 z M 30,129 l 3,0 0,3 -3,0 z M 39,129 l 3,0 0,3 -3,0 z M 45,129 l 3,0 0,3 -3,0 z M 48,129 l 3,0 0,3 -3,0 z M 51,129 l 3,0 0,3 -3,0 z M 54,129 l 3,0 0,3 -3,0 z M 66,129 l 3,0 0,3 -3,0 z M 72,129 l 3,0 0,3 -3,0 z M 75,129 l 3,0 0,3 -3,0 z M 78,129 l 3,0 0,3 -3,0 z M 81,129 l 3,0 0,3 -3,0 z M 87,129 l 3,0 0,3 -3,0 z M 99,129 l 3,0 0,3 -3,0 z M 105,129 l 3,0 0,3 -3,0 z M 114,129 l 3,0 0,3 -3,0 z M 117,129 l 3,0 0,3 -3,0 z M 120,129 l 3,0 0,3 -3,0 z M 132,129 l 3,0 0,3 -3,0 z M 135,129 l 3,0 0,3 -3,0 z M 138,129 l 3,0 0,3 -3,0 z M 150,129 l 3,0 0,3 -3,0 z M 159,129 l 3,0 0,3 -3,0 z M 165,129 l 3,0 0,3 -3,0 z M 171,129 l 3,0 0,3 -3,0 z M 180,129 l 3,0 0,3 -3,0 z M 186,129 l 3,0 0,3 -3,0 z M 192,129 l 3,0 0,3 -3,0 z M 195,129 l 3,0 0,3 -3,0 z M 201,129 l 3,0 0,3 -3,0 z M 27,132 l 3,0 0,3 -3,0 z M 30,132 l 3,0 0,3 -3,0 z M 33,132 l 3,0 0,3 -3,0 z M 36,132 l 3,0 0,3 -3,0 z M 42,132 l 3,0 0,3 -3,0 z M 48,132 l 3,0 0,3 -3,0 z M 60,132 l 3,0 0,3 -3,0 z M 63,132 l 3,0 0,3 -3,0 z M 66,132 l 3,0 0,3 -3,0 z M 72,132 l 3,0 0,3 -3,0 z M 78,132 l 3,0 0,3 -3,0 z M 90,132 l 3,0 0,3 -3,0 z M 93,132 l 3,0 0,3 -3,0 z M 99,132 l 3,0 0,3 -3,0 z M 105,132 l 3,0 0,3 -3,0 z M 108,132 l 3,0 0,3 -3,0 z M 120,132 l 3,0 0,3 -3,0 z M 123,132 l 3,0 0,3 -3,0 z M 126,132 l 3,0 0,3 -3,0 z M 129,132 l 3,0 0,3 -3,0 z M 132,132 l 3,0 0,3 -3,0 z M 147,132 l 3,0 0,3 -3,0 z M 153,132 l 3,0 0,3 -3,0 z M 159,132 l 3,0 0,3 -3,0 z M 162,132 l 3,0 0,3 -3,0 z M 168,132 l 3,0 0,3 -3,0 z M 171,132 l 3,0 0,3 -3,0 z M 186,132 l 3,0 0,3 -3,0 z M 189,132 l 3,0 0,3 -3,0 z M 198,132 l 3,0 0,3 -3,0 z M 204,132 l 3,0 0,3 -3,0 z M 210,132 l 3,0 0,3 -3,0 z M 18,135 l 3,0 0,3 -3,0 z M 21,135 l 3,0 0,3 -3,0 z M 24,135 l 3,0 0,3 -3,0 z M 30,135 l 3,0 0,3 -3,0 z M 39,135 l 3,0 0,3 -3,0 z M 45,135 l 3,0 0,3 -3,0 z M 48,135 l 3,0 0,3 -3,0 z M 51,135 l 3,0 0,3 -3,0 z M 54,135 l 3,0 0,3 -3,0 z M 57,135 l 3,0 0,3 -3,0 z M 60,135 l 3,0 0,3 -3,0 z M 63,135 l 3,0 0,3 -3,0 z M 66,135 l 3,0 0,3 -3,0 z M 69,135 l 3,0 0,3 -3,0 z M 75,135 l 3,0 0,3 -3,0 z M 84,135 l 3,0 0,3 -3,0 z M 99,135 l 3,0 0,3 -3,0 z M 102,135 l 3,0 0,3 -3,0 z M 108,135 l 3,0 0,3 -3,0 z M 111,135 l 3,0 0,3 -3,0 z M 123,135 l 3,0 0,3 -3,0 z M 126,135 l 3,0 0,3 -3,0 z M 135,135 l 3,0 0,3 -3,0 z M 150,135 l 3,0 0,3 -3,0 z M 153,135 l 3,0 0,3 -3,0 z M 159,135 l 3,0 0,3 -3,0 z M 162,135 l 3,0 0,3 -3,0 z M 168,135 l 3,0 0,3 -3,0 z M 177,135 l 3,0 0,3 -3,0 z M 180,135 l 3,0 0,3 -3,0 z M 183,135 l 3,0 0,3 -3,0 z M 186,135 l 3,0 0,3 -3,0 z M 189,135 l 3,0 0,3 -3,0 z M 192,135 l 3,0 0,3 -3,0 z M 195,135 l 3,0 0,3 -3,0 z M 198,135 l 3,0 0,3 -3,0 z M 207,135 l 3,0 0,3 -3,0 z M 210,135 l 3,0 0,3 -3,0 z M 18,138 l 3,0 0,3 -3,0 z M 27,138 l 3,0 0,3 -3,0 z M 33,138 l 3,0 0,3 -3,0 z M 36,138 l 3,0 0,3 -3,0 z M 39,138 l 3,0 0,3 -3,0 z M 51,138 l 3,0 0,3 -3,0 z M 60,138 l 3,0 0,3 -3,0 z M 63,138 l 3,0 0,3 -3,0 z M 66,138 l 3,0 0,3 -3,0 z M 78,138 l 3,0 0,3 -3,0 z M 81,138 l 3,0 0,3 -3,0 z M 87,138 l 3,0 0,3 -3,0 z M 90,138 l 3,0 0,3 -3,0 z M 99,138 l 3,0 0,3 -3,0 z M 102,138 l 3,0 0,3 -3,0 z M 111,138 l 3,0 0,3 -3,0 z M 120,138 l 3,0 0,3 -3,0 z M 123,138 l 3,0 0,3 -3,0 z M 135,138 l 3,0 0,3 -3,0 z M 144,138 l 3,0 0,3 -3,0 z M 150,138 l 3,0 0,3 -3,0 z M 153,138 l 3,0 0,3 -3,0 z M 156,138 l 3,0 0,3 -3,0 z M 159,138 l 3,0 0,3 -3,0 z M 165,138 l 3,0 0,3 -3,0 z M 168,138 l 3,0 0,3 -3,0 z M 180,138 l 3,0 0,3 -3,0 z M 186,138 l 3,0 0,3 -3,0 z M 189,138 l 3,0 0,3 -3,0 z M 198,138 l 3,0 0,3 -3,0 z M 207,138 l 3,0 0,3 -3,0 z M 18,141 l 3,0 0,3 -3,0 z M 27,141 l 3,0 0,3 -3,0 z M 30,141 l 3,0 0,3 -3,0 z M 39,141 l 3,0 0,3 -3,0 z M 42,141 l 3,0 0,3 -3,0 z M 51,141 l 3,0 0,3 -3,0 z M 54,141 l 3,0 0,3 -3,0 z M 57,141 l 3,0 0,3 -3,0 z M 63,141 l 3,0 0,3 -3,0 z M 66,141 l 3,0 0,3 -3,0 z M 69,141 l 3,0 0,3 -3,0 z M 81,141 l 3,0 0,3 -3,0 z M 84,141 l 3,0 0,3 -3,0 z M 87,141 l 3,0 0,3 -3,0 z M 90,141 l 3,0 0,3 -3,0 z M 96,141 l 3,0 0,3 -3,0 z M 102,141 l 3,0 0,3 -3,0 z M 105,141 l 3,0 0,3 -3,0 z M 114,141 l 3,0 0,3 -3,0 z M 117,141 l 3,0 0,3 -3,0 z M 120,141 l 3,0 0,3 -3,0 z M 129,141 l 3,0 0,3 -3,0 z M 135,141 l 3,0 0,3 -3,0 z M 141,141 l 3,0 0,3 -3,0 z M 147,141 l 3,0 0,3 -3,0 z M 150,141 l 3,0 0,3 -3,0 z M 156,141 l 3,0 0,3 -3,0 z M 174,141 l 3,0 0,3 -3,0 z M 177,141 l 3,0 0,3 -3,0 z M 180,141 l 3,0 0,3 -3,0 z M 189,141 l 3,0 0,3 -3,0 z M 192,141 l 3,0 0,3 -3,0 z M 195,141 l 3,0 0,3 -3,0 z M 198,141 l 3,0 0,3 -3,0 z M 201,141 l 3,0 0,3 -3,0 z M 204,141 l 3,0 0,3 -3,0 z M 210,141 l 3,0 0,3 -3,0 z M 24,144 l 3,0 0,3 -3,0 z M 33,144 l 3,0 0,3 -3,0 z M 36,144 l 3,0 0,3 -3,0 z M 39,144 l 3,0 0,3 -3,0 z M 45,144 l 3,0 0,3 -3,0 z M 48,144 l 3,0 0,3 -3,0 z M 60,144 l 3,0 0,3 -3,0 z M 63,144 l 3,0 0,3 -3,0 z M 69,144 l 3,0 0,3 -3,0 z M 72,144 l 3,0 0,3 -3,0 z M 75,144 l 3,0 0,3 -3,0 z M 78,144 l 3,0 0,3 -3,0 z M 81,144 l 3,0 0,3 -3,0 z M 84,144 l 3,0 0,3 -3,0 z M 87,144 l 3,0 0,3 -3,0 z M 93,144 l 3,0 0,3 -3,0 z M 96,144 l 3,0 0,3 -3,0 z M 99,144 l 3,0 0,3 -3,0 z M 102,144 l 3,0 0,3 -3,0 z M 108,144 l 3,0 0,3 -3,0 z M 120,144 l 3,0 0,3 -3,0 z M 123,144 l 3,0 0,3 -3,0 z M 129,144 l 3,0 0,3 -3,0 z M 135,144 l 3,0 0,3 -3,0 z M 150,144 l 3,0 0,3 -3,0 z M 153,144 l 3,0 0,3 -3,0 z M 156,144 l 3,0 0,3 -3,0 z M 162,144 l 3,0 0,3 -3,0 z M 168,144 l 3,0 0,3 -3,0 z M 171,144 l 3,0 0,3 -3,0 z M 174,144 l 3,0 0,3 -3,0 z M 180,144 l 3,0 0,3 -3,0 z M 189,144 l 3,0 0,3 -3,0 z M 192,144 l 3,0 0,3 -3,0 z M 195,144 l 3,0 0,3 -3,0 z M 204,144 l 3,0 0,3 -3,0 z M 18,147 l 3,0 0,3 -3,0 z M 30,147 l 3,0 0,3 -3,0 z M 39,147 l 3,0 0,3 -3,0 z M 42,147 l 3,0 0,3 -3,0 z M 45,147 l 3,0 0,3 -3,0 z M 60,147 l 3,0 0,3 -3,0 z M 63,147 l 3,0 0,3 -3,0 z M 66,147 l 3,0 0,3 -3,0 z M 72,147 l 3,0 0,3 -3,0 z M 75,147 l 3,0 0,3 -3,0 z M 81,147 l 3,0 0,3 -3,0 z M 84,147 l 3,0 0,3 -3,0 z M 87,147 l 3,0 0,3 -3,0 z M 90,147 l 3,0 0,3 -3,0 z M 111,147 l 3,0 0,3 -3,0 z M 117,147 l 3,0 0,3 -3,0 z M 129,147 l 3,0 0,3 -3,0 z M 135,147 l 3,0 0,3 -3,0 z M 138,147 l 3,0 0,3 -3,0 z M 141,147 l 3,0 0,3 -3,0 z M 144,147 l 3,0 0,3 -3,0 z M 150,147 l 3,0 0,3 -3,0 z M 165,147 l 3,0 0,3 -3,0 z M 168,147 l 3,0 0,3 -3,0 z M 171,147 l 3,0 0,3 -3,0 z M 177,147 l 3,0 0,3 -3,0 z M 180,147 l 3,0 0,3 -3,0 z M 186,147 l 3,0 0,3 -3,0 z M 195,147 l 3,0 0,3 -3,0 z M 198,147 l 3,0 0,3 -3,0 z M 201,147 l 3,0 0,3 -3,0 z M 204,147 l 3,0 0,3 -3,0 z M 210,147 l 3,0 0,3 -3,0 z M 21,150 l 3,0 0,3 -3,0 z M 36,150 l 3,0 0,3 -3,0 z M 39,150 l 3,0 0,3 -3,0 z M 48,150 l 3,0 0,3 -3,0 z M 51,150 l 3,0 0,3 -3,0 z M 75,150 l 3,0 0,3 -3,0 z M 84,150 l 3,0 0,3 -3,0 z M 87,150 l 3,0 0,3 -3,0 z M 90,150 l 3,0 0,3 -3,0 z M 93,150 l 3,0 0,3 -3,0 z M 96,150 l 3,0 0,3 -3,0 z M 105,150 l 3,0 0,3 -3,0 z M 117,150 l 3,0 0,3 -3,0 z M 123,150 l 3,0 0,3 -3,0 z M 132,150 l 3,0 0,3 -3,0 z M 135,150 l 3,0 0,3 -3,0 z M 153,150 l 3,0 0,3 -3,0 z M 156,150 l 3,0 0,3 -3,0 z M 162,150 l 3,0 0,3 -3,0 z M 171,150 l 3,0 0,3 -3,0 z M 186,150 l 3,0 0,3 -3,0 z M 195,150 l 3,0 0,3 -3,0 z M 201,150 l 3,0 0,3 -3,0 z M 207,150 l 3,0 0,3 -3,0 z M 21,153 l 3,0 0,3 -3,0 z M 30,153 l 3,0 0,3 -3,0 z M 33,153 l 3,0 0,3 -3,0 z M 39,153 l 3,0 0,3 -3,0 z M 42,153 l 3,0 0,3 -3,0 z M 54,153 l 3,0 0,3 -3,0 z M 63,153 l 3,0 0,3 -3,0 z M 72,153 l 3,0 0,3 -3,0 z M 81,153 l 3,0 0,3 -3,0 z M 84,153 l 3,0 0,3 -3,0 z M 90,153 l 3,0 0,3 -3,0 z M 93,153 l 3,0 0,3 -3,0 z M 99,153 l 3,0 0,3 -3,0 z M 111,153 l 3,0 0,3 -3,0 z M 114,153 l 3,0 0,3 -3,0 z M 117,153 l 3,0 0,3 -3,0 z M 129,153 l 3,0 0,3 -3,0 z M 132,153 l 3,0 0,3 -3,0 z M 135,153 l 3,0 0,3 -3,0 z M 144,153 l 3,0 0,3 -3,0 z M 159,153 l 3,0 0,3 -3,0 z M 162,153 l 3,0 0,3 -3,0 z M 165,153 l 3,0 0,3 -3,0 z M 177,153 l 3,0 0,3 -3,0 z M 180,153 l 3,0 0,3 -3,0 z M 183,153 l 3,0 0,3 -3,0 z M 186,153 l 3,0 0,3 -3,0 z M 189,153 l 3,0 0,3 -3,0 z M 192,153 l 3,0 0,3 -3,0 z M 201,153 l 3,0 0,3 -3,0 z M 207,153 l 3,0 0,3 -3,0 z M 210,153 l 3,0 0,3 -3,0 z M 36,156 l 3,0 0,3 -3,0 z M 42,156 l 3,0 0,3 -3,0 z M 45,156 l 3,0 0,3 -3,0 z M 54,156 l 3,0 0,3 -3,0 z M 57,156 l 3,0 0,3 -3,0 z M 69,156 l 3,0 0,3 -3,0 z M 72,156 l 3,0 0,3 -3,0 z M 75,156 l 3,0 0,3 -3,0 z M 87,156 l 3,0 0,3 -3,0 z M 90,156 l 3,0 0,3 -3,0 z M 93,156 l 3,0 0,3 -3,0 z M 114,156 l 3,0 0,3 -3,0 z M 117,156 l 3,0 0,3 -3,0 z M 120,156 l 3,0 0,3 -3,0 z M 123,156 l 3,0 0,3 -3,0 z M 126,156 l 3,0 0,3 -3,0 z M 129,156 l 3,0 0,3 -3,0 z M 141,156 l 3,0 0,3 -3,0 z M 147,156 l 3,0 0,3 -3,0 z M 153,156 l 3,0 0,3 -3,0 z M 159,156 l 3,0 0,3 -3,0 z M 162,156 l 3,0 0,3 -3,0 z M 171,156 l 3,0 0,3 -3,0 z M 180,156 l 3,0 0,3 -3,0 z M 192,156 l 3,0 0,3 -3,0 z M 195,156 l 3,0 0,3 -3,0 z M 201,156 l 3,0 0,3 -3,0 z M 21,159 l 3,0 0,3 -3,0 z M 27,159 l 3,0 0,3 -3,0 z M 30,159 l 3,0 0,3 -3,0 z M 33,159 l 3,0 0,3 -3,0 z M 39,159 l 3,0 0,3 -3,0 z M 45,159 l 3,0 0,3 -3,0 z M 51,159 l 3,0 0,3 -3,0 z M 60,159 l 3,0 0,3 -3,0 z M 63,159 l 3,0 0,3 -3,0 z M 81,159 l 3,0 0,3 -3,0 z M 84,159 l 3,0 0,3 -3,0 z M 90,159 l 3,0 0,3 -3,0 z M 96,159 l 3,0 0,3 -3,0 z M 99,159 l 3,0 0,3 -3,0 z M 108,159 l 3,0 0,3 -3,0 z M 111,159 l 3,0 0,3 -3,0 z M 114,159 l 3,0 0,3 -3,0 z M 117,159 l 3,0 0,3 -3,0 z M 120,159 l 3,0 0,3 -3,0 z M 126,159 l 3,0 0,3 -3,0 z M 135,159 l 3,0 0,3 -3,0 z M 141,159 l 3,0 0,3 -3,0 z M 144,159 l 3,0 0,3 -3,0 z M 147,159 l 3,0 0,3 -3,0 z M 159,159 l 3,0 0,3 -3,0 z M 165,159 l 3,0 0,3 -3,0 z M 171,159 l 3,0 0,3 -3,0 z M 177,159 l 3,0 0,3 -3,0 z M 180,159 l 3,0 0,3 -3,0 z M 183,159 l 3,0 0,3 -3,0 z M 192,159 l 3,0 0,3 -3,0 z M 198,159 l 3,0 0,3 -3,0 z M 24,162 l 3,0 0,3 -3,0 z M 27,162 l 3,0 0,3 -3,0 z M 36,162 l 3,0 0,3 -3,0 z M 39,162 l 3,0 0,3 -3,0 z M 57,162 l 3,0 0,3 -3,0 z M 63,162 l 3,0 0,3 -3,0 z M 66,162 l 3,0 0,3 -3,0 z M 69,162 l 3,0 0,3 -3,0 z M 72,162 l 3,0 0,3 -3,0 z M 81,162 l 3,0 0,3 -3,0 z M 87,162 l 3,0 0,3 -3,0 z M 90,162 l 3,0 0,3 -3,0 z M 93,162 l 3,0 0,3 -3,0 z M 96,162 l 3,0 0,3 -3,0 z M 99,162 l 3,0 0,3 -3,0 z M 108,162 l 3,0 0,3 -3,0 z M 111,162 l 3,0 0,3 -3,0 z M 120,162 l 3,0 0,3 -3,0 z M 126,162 l 3,0 0,3 -3,0 z M 129,162 l 3,0 0,3 -3,0 z M 132,162 l 3,0 0,3 -3,0 z M 135,162 l 3,0 0,3 -3,0 z M 144,162 l 3,0 0,3 -3,0 z M 153,162 l 3,0 0,3 -3,0 z M 159,162 l 3,0 0,3 -3,0 z M 162,162 l 3,0 0,3 -3,0 z M 168,162 l 3,0 0,3 -3,0 z M 174,162 l 3,0 0,3 -3,0 z M 183,162 l 3,0 0,3 -3,0 z M 189,162 l 3,0 0,3 -3,0 z M 198,162 l 3,0 0,3 -3,0 z M 204,162 l 3,0 0,3 -3,0 z M 207,162 l 3,0 0,3 -3,0 z M 24,165 l 3,0 0,3 -3,0 z M 33,165 l 3,0 0,3 -3,0 z M 60,165 l 3,0 0,3 -3,0 z M 66,165 l 3,0 0,3 -3,0 z M 69,165 l 3,0 0,3 -3,0 z M 72,165 l 3,0 0,3 -3,0 z M 75,165 l 3,0 0,3 -3,0 z M 93,165 l 3,0 0,3 -3,0 z M 96,165 l 3,0 0,3 -3,0 z M 99,165 l 3,0 0,3 -3,0 z M 111,165 l 3,0 0,3 -3,0 z M 117,165 l 3,0 0,3 -3,0 z M 120,165 l 3,0 0,3 -3,0 z M 132,165 l 3,0 0,3 -3,0 z M 135,165 l 3,0 0,3 -3,0 z M 138,165 l 3,0 0,3 -3,0 z M 147,165 l 3,0 0,3 -3,0 z M 150,165 l 3,0 0,3 -3,0 z M 153,165 l 3,0 0,3 -3,0 z M 168,165 l 3,0 0,3 -3,0 z M 171,165 l 3,0 0,3 -3,0 z M 174,165 l 3,0 0,3 -3,0 z M 177,165 l 3,0 0,3 -3,0 z M 183,165 l 3,0 0,3 -3,0 z M 186,165 l 3,0 0,3 -3,0 z M 189,165 l 3,0 0,3 -3,0 z M 204,165 l 3,0 0,3 -3,0 z M 24,168 l 3,0 0,3 -3,0 z M 27,168 l 3,0 0,3 -3,0 z M 30,168 l 3,0 0,3 -3,0 z M 33,168 l 3,0 0,3 -3,0 z M 36,168 l 3,0 0,3 -3,0 z M 39,168 l 3,0 0,3 -3,0 z M 54,168 l 3,0 0,3 -3,0 z M 57,168 l 3,0 0,3 -3,0 z M 63,168 l 3,0 0,3 -3,0 z M 66,168 l 3,0 0,3 -3,0 z M 72,168 l 3,0 0,3 -3,0 z M 75,168 l 3,0 0,3 -3,0 z M 78,168 l 3,0 0,3 -3,0 z M 81,168 l 3,0 0,3 -3,0 z M 102,168 l 3,0 0,3 -3,0 z M 108,168 l 3,0 0,3 -3,0 z M 111,168 l 3,0 0,3 -3,0 z M 120,168 l 3,0 0,3 -3,0 z M 129,168 l 3,0 0,3 -3,0 z M 132,168 l 3,0 0,3 -3,0 z M 135,168 l 3,0 0,3 -3,0 z M 141,168 l 3,0 0,3 -3,0 z M 153,168 l 3,0 0,3 -3,0 z M 156,168 l 3,0 0,3 -3,0 z M 159,168 l 3,0 0,3 -3,0 z M 162,168 l 3,0 0,3 -3,0 z M 165,168 l 3,0 0,3 -3,0 z M 171,168 l 3,0 0,3 -3,0 z M 180,168 l 3,0 0,3 -3,0 z M 189,168 l 3,0 0,3 -3,0 z M 192,168 l 3,0 0,3 -3,0 z M 198,168 l 3,0 0,3 -3,0 z M 204,168 l 3,0 0,3 -3,0 z M 210,168 l 3,0 0,3 -3,0 z M 18,171 l 3,0 0,3 -3,0 z M 33,171 l 3,0 0,3 -3,0 z M 51,171 l 3,0 0,3 -3,0 z M 60,171 l 3,0 0,3 -3,0 z M 63,171 l 3,0 0,3 -3,0 z M 69,171 l 3,0 0,3 -3,0 z M 72,171 l 3,0 0,3 -3,0 z M 75,171 l 3,0 0,3 -3,0 z M 87,171 l 3,0 0,3 -3,0 z M 90,171 l 3,0 0,3 -3,0 z M 93,171 l 3,0 0,3 -3,0 z M 111,171 l 3,0 0,3 -3,0 z M 117,171 l 3,0 0,3 -3,0 z M 123,171 l 3,0 0,3 -3,0 z M 126,171 l 3,0 0,3 -3,0 z M 129,171 l 3,0 0,3 -3,0 z M 135,171 l 3,0 0,3 -3,0 z M 138,171 l 3,0 0,3 -3,0 z M 141,171 l 3,0 0,3 -3,0 z M 144,171 l 3,0 0,3 -3,0 z M 150,171 l 3,0 0,3 -3,0 z M 162,171 l 3,0 0,3 -3,0 z M 165,171 l 3,0 0,3 -3,0 z M 171,171 l 3,0 0,3 -3,0 z M 174,171 l 3,0 0,3 -3,0 z M 183,171 l 3,0 0,3 -3,0 z M 186,171 l 3,0 0,3 -3,0 z M 189,171 l 3,0 0,3 -3,0 z M 192,171 l 3,0 0,3 -3,0 z M 195,171 l 3,0 0,3 -3,0 z M 198,171 l 3,0 0,3 -3,0 z M 201,171 l 3,0 0,3 -3,0 z M 204,171 l 3,0 0,3 -3,0 z M 207,171 l 3,0 0,3 -3,0 z M 210,171 l 3,0 0,3 -3,0 z M 21,174 l 3,0 0,3 -3,0 z M 24,174 l 3,0 0,3 -3,0 z M 27,174 l 3,0 0,3 -3,0 z M 30,174 l 3,0 0,3 -3,0 z M 33,174 l 3,0 0,3 -3,0 z M 36,174 l 3,0 0,3 -3,0 z M 45,174 l 3,0 0,3 -3,0 z M 51,174 l 3,0 0,3 -3,0 z M 72,174 l 3,0 0,3 -3,0 z M 81,174 l 3,0 0,3 -3,0 z M 90,174 l 3,0 0,3 -3,0 z M 99,174 l 3,0 0,3 -3,0 z M 117,174 l 3,0 0,3 -3,0 z M 129,174 l 3,0 0,3 -3,0 z M 135,174 l 3,0 0,3 -3,0 z M 144,174 l 3,0 0,3 -3,0 z M 153,174 l 3,0 0,3 -3,0 z M 156,174 l 3,0 0,3 -3,0 z M 159,174 l 3,0 0,3 -3,0 z M 171,174 l 3,0 0,3 -3,0 z M 174,174 l 3,0 0,3 -3,0 z M 180,174 l 3,0 0,3 -3,0 z M 183,174 l 3,0 0,3 -3,0 z M 186,174 l 3,0 0,3 -3,0 z M 192,174 l 3,0 0,3 -3,0 z M 195,174 l 3,0 0,3 -3,0 z M 198,174 l 3,0 0,3 -3,0 z M 201,174 l 3,0 0,3 -3,0 z M 204,174 l 3,0 0,3 -3,0 z M 18,177 l 3,0 0,3 -3,0 z M 21,177 l 3,0 0,3 -3,0 z M 39,177 l 3,0 0,3 -3,0 z M 42,177 l 3,0 0,3 -3,0 z M 54,177 l 3,0 0,3 -3,0 z M 57,177 l 3,0 0,3 -3,0 z M 60,177 l 3,0 0,3 -3,0 z M 66,177 l 3,0 0,3 -3,0 z M 69,177 l 3,0 0,3 -3,0 z M 72,177 l 3,0 0,3 -3,0 z M 75,177 l 3,0 0,3 -3,0 z M 78,177 l 3,0 0,3 -3,0 z M 87,177 l 3,0 0,3 -3,0 z M 93,177 l 3,0 0,3 -3,0 z M 99,177 l 3,0 0,3 -3,0 z M 102,177 l 3,0 0,3 -3,0 z M 117,177 l 3,0 0,3 -3,0 z M 138,177 l 3,0 0,3 -3,0 z M 141,177 l 3,0 0,3 -3,0 z M 150,177 l 3,0 0,3 -3,0 z M 153,177 l 3,0 0,3 -3,0 z M 165,177 l 3,0 0,3 -3,0 z M 168,177 l 3,0 0,3 -3,0 z M 177,177 l 3,0 0,3 -3,0 z M 180,177 l 3,0 0,3 -3,0 z M 189,177 l 3,0 0,3 -3,0 z M 198,177 l 3,0 0,3 -3,0 z M 204,177 l 3,0 0,3 -3,0 z M 24,180 l 3,0 0,3 -3,0 z M 27,180 l 3,0 0,3 -3,0 z M 33,180 l 3,0 0,3 -3,0 z M 36,180 l 3,0 0,3 -3,0 z M 42,180 l 3,0 0,3 -3,0 z M 51,180 l 3,0 0,3 -3,0 z M 54,180 l 3,0 0,3 -3,0 z M 57,180 l 3,0 0,3 -3,0 z M 63,180 l 3,0 0,3 -3,0 z M 66,180 l 3,0 0,3 -3,0 z M 72,180 l 3,0 0,3 -3,0 z M 78,180 l 3,0 0,3 -3,0 z M 90,180 l 3,0 0,3 -3,0 z M 93,180 l 3,0 0,3 -3,0 z M 105,180 l 3,0 0,3 -3,0 z M 108,180 l 3,0 0,3 -3,0 z M 117,180 l 3,0 0,3 -3,0 z M 120,180 l 3,0 0,3 -3,0 z M 123,180 l 3,0 0,3 -3,0 z M 126,180 l 3,0 0,3 -3,0 z M 132,180 l 3,0 0,3 -3,0 z M 147,180 l 3,0 0,3 -3,0 z M 159,180 l 3,0 0,3 -3,0 z M 162,180 l 3,0 0,3 -3,0 z M 168,180 l 3,0 0,3 -3,0 z M 183,180 l 3,0 0,3 -3,0 z M 189,180 l 3,0 0,3 -3,0 z M 192,180 l 3,0 0,3 -3,0 z M 195,180 l 3,0 0,3 -3,0 z M 198,180 l 3,0 0,3 -3,0 z M 201,180 l 3,0 0,3 -3,0 z M 210,180 l 3,0 0,3 -3,0 z M 18,183 l 3,0 0,3 -3,0 z M 27,183 l 3,0 0,3 -3,0 z M 39,183 l 3,0 0,3 -3,0 z M 42,183 l 3,0 0,3 -3,0 z M 48,183 l 3,0 0,3 -3,0 z M 60,183 l 3,0 0,3 -3,0 z M 66,183 l 3,0 0,3 -3,0 z M 81,183 l 3,0 0,3 -3,0 z M 84,183 l 3,0 0,3 -3,0 z M 96,183 l 3,0 0,3 -3,0 z M 102,183 l 3,0 0,3 -3,0 z M 108,183 l 3,0 0,3 -3,0 z M 114,183 l 3,0 0,3 -3,0 z M 117,183 l 3,0 0,3 -3,0 z M 120,183 l 3,0 0,3 -3,0 z M 126,183 l 3,0 0,3 -3,0 z M 135,183 l 3,0 0,3 -3,0 z M 153,183 l 3,0 0,3 -3,0 z M 174,183 l 3,0 0,3 -3,0 z M 177,183 l 3,0 0,3 -3,0 z M 180,183 l 3,0 0,3 -3,0 z M 201,183 l 3,0 0,3 -3,0 z M 204,183 l 3,0 0,3 -3,0 z M 207,183 l 3,0 0,3 -3,0 z M 210,183 l 3,0 0,3 -3,0 z M 21,186 l 3,0 0,3 -3,0 z M 24,186 l 3,0 0,3 -3,0 z M 30,186 l 3,0 0,3 -3,0 z M 36,186 l 3,0 0,3 -3,0 z M 42,186 l 3,0 0,3 -3,0 z M 45,186 l 3,0 0,3 -3,0 z M 48,186 l 3,0 0,3 -3,0 z M 54,186 l 3,0 0,3 -3,0 z M 63,186 l 3,0 0,3 -3,0 z M 72,186 l 3,0 0,3 -3,0 z M 75,186 l 3,0 0,3 -3,0 z M 84,186 l 3,0 0,3 -3,0 z M 87,186 l 3,0 0,3 -3,0 z M 90,186 l 3,0 0,3 -3,0 z M 93,186 l 3,0 0,3 -3,0 z M 102,186 l 3,0 0,3 -3,0 z M 105,186 l 3,0 0,3 -3,0 z M 108,186 l 3,0 0,3 -3,0 z M 111,186 l 3,0 0,3 -3,0 z M 114,186 l 3,0 0,3 -3,0 z M 117,186 l 3,0 0,3 -3,0 z M 120,186 l 3,0 0,3 -3,0 z M 126,186 l 3,0 0,3 -3,0 z M 132,186 l 3,0 0,3 -3,0 z M 135,186 l 3,0 0,3 -3,0 z M 150,186 l 3,0 0,3 -3,0 z M 156,186 l 3,0 0,3 -3,0 z M 159,186 l 3,0 0,3 -3,0 z M 162,186 l 3,0 0,3 -3,0 z M 171,186 l 3,0 0,3 -3,0 z M 177,186 l 3,0 0,3 -3,0 z M 180,186 l 3,0 0,3 -3,0 z M 186,186 l 3,0 0,3 -3,0 z M 189,186 l 3,0 0,3 -3,0 z M 192,186 l 3,0 0,3 -3,0 z M 195,186 l 3,0 0,3 -3,0 z M 198,186 l 3,0 0,3 -3,0 z M 201,186 l 3,0 0,3 -3,0 z M 204,186 l 3,0 0,3 -3,0 z M 207,186 l 3,0 0,3 -3,0 z M 42,189 l 3,0 0,3 -3,0 z M 54,189 l 3,0 0,3 -3,0 z M 66,189 l 3,0 0,3 -3,0 z M 72,189 l 3,0 0,3 -3,0 z M 75,189 l 3,0 0,3 -3,0 z M 81,189 l 3,0 0,3 -3,0 z M 84,189 l 3,0 0,3 -3,0 z M 90,189 l 3,0 0,3 -3,0 z M 93,189 l 3,0 0,3 -3,0 z M 102,189 l 3,0 0,3 -3,0 z M 108,189 l 3,0 0,3 -3,0 z M 120,189 l 3,0 0,3 -3,0 z M 123,189 l 3,0 0,3 -3,0 z M 129,189 l 3,0 0,3 -3,0 z M 144,189 l 3,0 0,3 -3,0 z M 147,189 l 3,0 0,3 -3,0 z M 153,189 l 3,0 0,3 -3,0 z M 159,189 l 3,0 0,3 -3,0 z M 171,189 l 3,0 0,3 -3,0 z M 177,189 l 3,0 0,3 -3,0 z M 180,189 l 3,0 0,3 -3,0 z M 186,189 l 3,0 0,3 -3,0 z M 198,189 l 3,0 0,3 -3,0 z M 204,189 l 3,0 0,3 -3,0 z M 207,189 l 3,0 0,3 -3,0 z M 210,189 l 3,0 0,3 -3,0 z M 18,192 l 3,0 0,3 -3,0 z M 21,192 l 3,0 0,3 -3,0 z M 24,192 l 3,0 0,3 -3,0 z M 27,192 l 3,0 0,3 -3,0 z M 30,192 l 3,0 0,3 -3,0 z M 33,192 l 3,0 0,3 -3,0 z M 36,192 l 3,0 0,3 -3,0 z M 42,192 l 3,0 0,3 -3,0 z M 51,192 l 3,0 0,3 -3,0 z M 54,192 l 3,0 0,3 -3,0 z M 57,192 l 3,0 0,3 -3,0 z M 63,192 l 3,0 0,3 -3,0 z M 66,192 l 3,0 0,3 -3,0 z M 72,192 l 3,0 0,3 -3,0 z M 78,192 l 3,0 0,3 -3,0 z M 81,192 l 3,0 0,3 -3,0 z M 84,192 l 3,0 0,3 -3,0 z M 99,192 l 3,0 0,3 -3,0 z M 102,192 l 3,0 0,3 -3,0 z M 108,192 l 3,0 0,3 -3,0 z M 114,192 l 3,0 0,3 -3,0 z M 120,192 l 3,0 0,3 -3,0 z M 126,192 l 3,0 0,3 -3,0 z M 129,192 l 3,0 0,3 -3,0 z M 147,192 l 3,0 0,3 -3,0 z M 150,192 l 3,0 0,3 -3,0 z M 153,192 l 3,0 0,3 -3,0 z M 156,192 l 3,0 0,3 -3,0 z M 159,192 l 3,0 0,3 -3,0 z M 168,192 l 3,0 0,3 -3,0 z M 174,192 l 3,0 0,3 -3,0 z M 180,192 l 3,0 0,3 -3,0 z M 183,192 l 3,0 0,3 -3,0 z M 186,192 l 3,0 0,3 -3,0 z M 192,192 l 3,0 0,3 -3,0 z M 198,192 l 3,0 0,3 -3,0 z M 204,192 l 3,0 0,3 -3,0 z M 210,192 l 3,0 0,3 -3,0 z M 18,195 l 3,0 0,3 -3,0 z M 36,195 l 3,0 0,3 -3,0 z M 45,195 l 3,0 0,3 -3,0 z M 48,195 l 3,0 0,3 -3,0 z M 51,195 l 3,0 0,3 -3,0 z M 54,195 l 3,0 0,3 -3,0 z M 63,195 l 3,0 0,3 -3,0 z M 72,195 l 3,0 0,3 -3,0 z M 75,195 l 3,0 0,3 -3,0 z M 81,195 l 3,0 0,3 -3,0 z M 87,195 l 3,0 0,3 -3,0 z M 90,195 l 3,0 0,3 -3,0 z M 96,195 l 3,0 0,3 -3,0 z M 105,195 l 3,0 0,3 -3,0 z M 108,195 l 3,0 0,3 -3,0 z M 120,195 l 3,0 0,3 -3,0 z M 123,195 l 3,0 0,3 -3,0 z M 129,195 l 3,0 0,3 -3,0 z M 135,195 l 3,0 0,3 -3,0 z M 138,195 l 3,0 0,3 -3,0 z M 141,195 l 3,0 0,3 -3,0 z M 144,195 l 3,0 0,3 -3,0 z M 171,195 l 3,0 0,3 -3,0 z M 174,195 l 3,0 0,3 -3,0 z M 180,195 l 3,0 0,3 -3,0 z M 186,195 l 3,0 0,3 -3,0 z M 198,195 l 3,0 0,3 -3,0 z M 18,198 l 3,0 0,3 -3,0 z M 24,198 l 3,0 0,3 -3,0 z M 27,198 l 3,0 0,3 -3,0 z M 30,198 l 3,0 0,3 -3,0 z M 36,198 l 3,0 0,3 -3,0 z M 42,198 l 3,0 0,3 -3,0 z M 48,198 l 3,0 0,3 -3,0 z M 54,198 l 3,0 0,3 -3,0 z M 63,198 l 3,0 0,3 -3,0 z M 69,198 l 3,0 0,3 -3,0 z M 84,198 l 3,0 0,3 -3,0 z M 90,198 l 3,0 0,3 -3,0 z M 93,198 l 3,0 0,3 -3,0 z M 96,198 l 3,0 0,3 -3,0 z M 99,198 l 3,0 0,3 -3,0 z M 108,198 l 3,0 0,3 -3,0 z M 111,198 l 3,0 0,3 -3,0 z M 114,198 l 3,0 0,3 -3,0 z M 117,198 l 3,0 0,3 -3,0 z M 120,198 l 3,0 0,3 -3,0 z M 123,198 l 3,0 0,3 -3,0 z M 132,198 l 3,0 0,3 -3,0 z M 135,198 l 3,0 0,3 -3,0 z M 138,198 l 3,0 0,3 -3,0 z M 153,198 l 3,0 0,3 -3,0 z M 156,198 l 3,0 0,3 -3,0 z M 171,198 l 3,0 0,3 -3,0 z M 180,198 l 3,0 0,3 -3,0 z M 186,198 l 3,0 0,3 -3,0 z M 189,198 l 3,0 0,3 -3,0 z M 192,198 l 3,0 0,3 -3,0 z M 195,198 l 3,0 0,3 -3,0 z M 198,198 l 3,0 0,3 -3,0 z M 201,198 l 3,0 0,3 -3,0 z M 207,198 l 3,0 0,3 -3,0 z M 210,198 l 3,0 0,3 -3,0 z M 18,201 l 3,0 0,3 -3,0 z M 24,201 l 3,0 0,3 -3,0 z M 27,201 l 3,0 0,3 -3,0 z M 30,201 l 3,0 0,3 -3,0 z M 36,201 l 3,0 0,3 -3,0 z M 42,201 l 3,0 0,3 -3,0 z M 48,201 l 3,0 0,3 -3,0 z M 51,201 l 3,0 0,3 -3,0 z M 57,201 l 3,0 0,3 -3,0 z M 60,201 l 3,0 0,3 -3,0 z M 66,201 l 3,0 0,3 -3,0 z M 72,201 l 3,0 0,3 -3,0 z M 75,201 l 3,0 0,3 -3,0 z M 78,201 l 3,0 0,3 -3,0 z M 84,201 l 3,0 0,3 -3,0 z M 87,201 l 3,0 0,3 -3,0 z M 93,201 l 3,0 0,3 -3,0 z M 102,201 l 3,0 0,3 -3,0 z M 105,201 l 3,0 0,3 -3,0 z M 108,201 l 3,0 0,3 -3,0 z M 117,201 l 3,0 0,3 -3,0 z M 138,201 l 3,0 0,3 -3,0 z M 141,201 l 3,0 0,3 -3,0 z M 150,201 l 3,0 0,3 -3,0 z M 153,201 l 3,0 0,3 -3,0 z M 159,201 l 3,0 0,3 -3,0 z M 171,201 l 3,0 0,3 -3,0 z M 174,201 l 3,0 0,3 -3,0 z M 180,201 l 3,0 0,3 -3,0 z M 186,201 l 3,0 0,3 -3,0 z M 189,201 l 3,0 0,3 -3,0 z M 192,201 l 3,0 0,3 -3,0 z M 195,201 l 3,0 0,3 -3,0 z M 207,201 l 3,0 0,3 -3,0 z M 18,204 l 3,0 0,3 -3,0 z M 24,204 l 3,0 0,3 -3,0 z M 27,204 l 3,0 0,3 -3,0 z M 30,204 l 3,0 0,3 -3,0 z M 36,204 l 3,0 0,3 -3,0 z M 42,204 l 3,0 0,3 -3,0 z M 48,204 l 3,0 0,3 -3,0 z M 54,204 l 3,0 0,3 -3,0 z M 63,204 l 3,0 0,3 -3,0 z M 66,204 l 3,0 0,3 -3,0 z M 69,204 l 3,0 0,3 -3,0 z M 72,204 l 3,0 0,3 -3,0 z M 78,204 l 3,0 0,3 -3,0 z M 93,204 l 3,0 0,3 -3,0 z M 99,204 l 3,0 0,3 -3,0 z M 102,204 l 3,0 0,3 -3,0 z M 105,204 l 3,0 0,3 -3,0 z M 108,204 l 3,0 0,3 -3,0 z M 111,204 l 3,0 0,3 -3,0 z M 123,204 l 3,0 0,3 -3,0 z M 126,204 l 3,0 0,3 -3,0 z M 129,204 l 3,0 0,3 -3,0 z M 135,204 l 3,0 0,3 -3,0 z M 141,204 l 3,0 0,3 -3,0 z M 162,204 l 3,0 0,3 -3,0 z M 174,204 l 3,0 0,3 -3,0 z M 189,204 l 3,0 0,3 -3,0 z M 195,204 l 3,0 0,3 -3,0 z M 198,204 l 3,0 0,3 -3,0 z M 201,204 l 3,0 0,3 -3,0 z M 204,204 l 3,0 0,3 -3,0 z M 207,204 l 3,0 0,3 -3,0 z M 18,207 l 3,0 0,3 -3,0 z M 36,207 l 3,0 0,3 -3,0 z M 42,207 l 3,0 0,3 -3,0 z M 45,207 l 3,0 0,3 -3,0 z M 48,207 l 3,0 0,3 -3,0 z M 66,207 l 3,0 0,3 -3,0 z M 69,207 l 3,0 0,3 -3,0 z M 75,207 l 3,0 0,3 -3,0 z M 78,207 l 3,0 0,3 -3,0 z M 84,207 l 3,0 0,3 -3,0 z M 87,207 l 3,0 0,3 -3,0 z M 96,207 l 3,0 0,3 -3,0 z M 102,207 l 3,0 0,3 -3,0 z M 105,207 l 3,0 0,3 -3,0 z M 111,207 l 3,0 0,3 -3,0 z M 117,207 l 3,0 0,3 -3,0 z M 132,207 l 3,0 0,3 -3,0 z M 135,207 l 3,0 0,3 -3,0 z M 138,207 l 3,0 0,3 -3,0 z M 144,207 l 3,0 0,3 -3,0 z M 147,207 l 3,0 0,3 -3,0 z M 150,207 l 3,0 0,3 -3,0 z M 153,207 l 3,0 0,3 -3,0 z M 165,207 l 3,0 0,3 -3,0 z M 171,207 l 3,0 0,3 -3,0 z M 177,207 l 3,0 0,3 -3,0 z M 180,207 l 3,0 0,3 -3,0 z M 183,207 l 3,0 0,3 -3,0 z M 186,207 l 3,0 0,3 -3,0 z M 204,207 l 3,0 0,3 -3,0 z M 207,207 l 3,0 0,3 -3,0 z M 210,207 l 3,0 0,3 -3,0 z M 18,210 l 3,0 0,3 -3,0 z M 21,210 l 3,0 0,3 -3,0 z M 24,210 l 3,0 0,3 -3,0 z M 27,210 l 3,0 0,3 -3,0 z M 30,210 l 3,0 0,3 -3,0 z M 33,210 l 3,0 0,3 -3,0 z M 36,210 l 3,0 0,3 -3,0 z M 42,210 l 3,0 0,3 -3,0 z M 45,210 l 3,0 0,3 -3,0 z M 51,210 l 3,0 0,3 -3,0 z M 57,210 l 3,0 0,3 -3,0 z M 63,210 l 3,0 0,3 -3,0 z M 66,210 l 3,0 0,3 -3,0 z M 72,210 l 3,0 0,3 -3,0 z M 75,210 l 3,0 0,3 -3,0 z M 93,210 l 3,0 0,3 -3,0 z M 96,210 l 3,0 0,3 -3,0 z M 99,210 l 3,0 0,3 -3,0 z M 105,210 l 3,0 0,3 -3,0 z M 108,210 l 3,0 0,3 -3,0 z M 111,210 l 3,0 0,3 -3,0 z M 123,210 l 3,0 0,3 -3,0 z M 126,210 l 3,0 0,3 -3,0 z M 132,210 l 3,0 0,3 -3,0 z M 135,210 l 3,0 0,3 -3,0 z M 138,210 l 3,0 0,3 -3,0 z M 144,210 l 3,0 0,3 -3,0 z M 156,210 l 3,0 0,3 -3,0 z M 159,210 l 3,0 0,3 -3,0 z M 168,210 l 3,0 0,3 -3,0 z M 183,210 l 3,0 0,3 -3,0 z M 192,210 l 3,0 0,3 -3,0 z M 195,210 l 3,0 0,3 -3,0 z M 204,210 l 3,0 0,3 -3,0 z M 207,210 l 3,0 0,3 -3,0 z " />
	</g>
</svg>
